<?xml version="1.0" encoding="UTF-8"?>
<!DOCTYPE svg PUBLIC "-//W3C//DTD SVG 1.1//EN" "http://www.w3.org/Graphics/SVG/1.1/DTD/svg11.dtd">
<!-- Creator: CorelDRAW -->
<svg xmlns="http://www.w3.org/2000/svg" xml:space="preserve" width="210mm" height="297mm" version="1.1" style="shape-rendering:geometricPrecision; text-rendering:geometricPrecision; image-rendering:optimizeQuality; fill-rule:evenodd; clip-rule:evenodd"
viewBox="0 0 21000 29700"
 xmlns:xlink="http://www.w3.org/1999/xlink"
 xmlns:xodm="http://www.corel.com/coreldraw/odm/2003">
 <defs>
  <style type="text/css">
   <![CDATA[
    .str1 {stroke:black;stroke-width:5;stroke-miterlimit:22.9256}
    .str0 {stroke:black;stroke-width:7.62;stroke-miterlimit:22.9256}
    .fil6 {fill:none}
    .fil1 {fill:#FEFEFE}
    .fil0 {fill:#332C2B}
    .fil7 {fill:black}
    .fil9 {fill:lime}
    .fil4 {fill:red}
    .fil5 {fill:#FFDC14}
    .fil8 {fill:yellow}
    .fil3 {fill:white}
    .fil10 {fill:black;fill-rule:nonzero}
    .fil2 {fill:white;fill-rule:nonzero}
   ]]>
  </style>
 </defs>
 <g id="Layer_x0020_1">
  <metadata id="CorelCorpID_0Corel-Layer"/>
  <g id="_2459975296320">
   <path class="fil0" d="M3504.2 2655.85c4684.62,-1019.32 9369.32,-987.95 14054.09,0 4424.81,7084.13 4156.64,14168.26 0,21252.53 -4684.77,978.24 -9369.47,1009.31 -14054.09,0 -4292.18,-7084.2 -4569.09,-14168.48 0,-21252.53z"/>
   <path class="fil1" d="M5480.2 5665.37c3357.4,-730.53 6714.85,-708.06 10072.37,0 3171.2,5077.09 2979,10154.19 0,15231.4 -3357.52,701.09 -6714.97,723.35 -10072.37,0 -3076.15,-5077.15 -3274.61,-10154.36 0,-15231.4z"/>
   <g>
    <polygon class="fil2" points="9640.74,2677.13 10329.27,2677.13 10595.04,3714.33 10859.72,2677.13 11545.8,2677.13 11545.8,4381.95 11118.4,4381.95 11118.4,3081.98 10786.71,4381.95 10399.83,4381.95 10069.4,3081.98 10069.4,4381.95 9640.74,4381.95 "/>
    <polygon class="fil2" points="4312.52,3458 4825.78,3359.61 4955.4,3991.56 5364.27,3256.47 6046.57,3125.66 5570.6,3872.41 6416.73,4792.71 5784.26,4913.96 5293,4293.12 5085.01,4623.51 5168.82,5031.94 4655.56,5130.26 "/>
    <path class="fil2" d="M6863.61 3839.85c-29.25,-276.77 24.83,-500.06 161.55,-669.11 137.02,-169.59 342.25,-267.67 615.75,-294.72 280.44,-27.74 504.67,26.66 672.52,163.37 167.39,136.25 266.02,341.12 294.87,613.93 20.98,198.26 4.89,364.28 -48.01,497.57 -52.83,133.29 -138.13,241.48 -255.84,324.56 -118.03,83.09 -270.04,133.68 -457.13,152.18 -189.93,18.73 -350.45,3.97 -481.65,-44.61 -130.79,-48.89 -241.88,-135.31 -333.5,-259.43 -91.22,-124.28 -147.59,-285.48 -168.56,-483.74zm521.22 -49.12c18.14,171.37 62.6,291.06 133.64,359.85 71.12,68.39 161.39,97.31 270.03,86.58 111.8,-11.04 194.59,-56.35 248.12,-135.39 53.38,-79.51 70.48,-214.12 50.46,-403.61 -16.95,-159.95 -61.5,-273.19 -133.17,-340.81 -71.82,-67.07 -162.33,-95.21 -272.16,-84.33 -104.78,10.34 -185.2,55.81 -240.78,137.1 -55.74,80.91 -74.35,208.07 -56.14,380.61z"/>
    <polygon class="fil2" points="12630.19,2827.37 13150.47,2891.26 12928.14,4582.48 12407.94,4518.59 "/>
    <path class="fil2" d="M13821.57 4148.09l493.95 69.79c-7.18,81.69 1.1,146.74 24.2,195.4 37.53,78.26 105.73,127.23 203.73,147.43 72.93,15.08 132.93,9.64 180.31,-16.78 46.99,-26.35 75.45,-62.26 85.55,-107.73 9.46,-43.13 -0.48,-85.8 -30.75,-127.69 -30.2,-41.89 -110.3,-92.18 -240.94,-150.78 -213.19,-97.15 -358.5,-197.26 -435.53,-301.25 -77.81,-104.15 -102.33,-221.2 -73.56,-351.61 18.93,-85.81 61.42,-161.82 127.65,-227.73 66.15,-65.9 153.35,-110.44 262.15,-133.91 108.72,-23.01 249.3,-16.79 421.72,18.81 211.69,43.68 364.57,116.58 458.15,218.71 93.67,102.04 131.75,241.79 114.88,418.92l-488.74 -71.12c3.78,-77.57 -11.12,-137.88 -44.94,-180.55 -33.35,-42.2 -86.34,-70.96 -158.48,-85.8 -59.76,-12.36 -107.22,-9.17 -142.94,10.26 -35.71,19.04 -57.55,47.02 -65.59,83.47 -5.84,26.35 1.34,52.62 21.21,79.04 19.47,27.21 72.06,59.07 158.47,96.77 213.03,94.74 362.2,176.97 448.06,246.68 85.86,69.64 142.86,145.5 170.53,228.35 27.83,82.39 32.01,169.36 11.91,260.52 -23.58,106.79 -75.06,199.28 -153.59,277.24 -78.52,78.42 -175.81,129.79 -291.71,154.58 -115.59,24.8 -253.8,20.76 -414.24,-12.35 -281.54,-58.06 -464.69,-152.65 -548.9,-284.46 -84.67,-131.59 -115.42,-282.76 -92.56,-454.21z"/>
    <polygon class="fil2" points="16514.82,3520.1 17015.94,3669.79 16495.11,5298.6 15993.99,5148.91 "/>
    <path class="fil2" d="M2435.61 13182.44l-3.47 840.87c-0.71,182.95 -48.1,319.98 -142.47,410.76 -94.06,90.7 -228.09,136.01 -400.99,135.31 -178.11,-0.7 -317.18,-50.75 -417,-150.63 -99.73,-99.87 -149.24,-251.74 -148.38,-455.75l1.11 -276.77 -654.55 -2.49 2.05 -508.06 1763.7 6.76zm-753.97 505.19l-0.47 123.89c-0.4,97.61 17.42,165.93 53.77,205.65 36.42,39.4 83.1,59.45 139.78,59.69 55.43,0.23 102.73,-16.79 141.05,-50.99 38.79,-33.73 58.34,-98.16 58.74,-192.59l0.55 -144.18 -393.42 -1.47z"/>
    <polygon class="fil2" points="2652.03,15196.51 2978.83,16514.75 2612.61,16599.54 2408.09,15774.37 2135.38,15837.48 2325.15,16603.04 1975.33,16684.1 1785.55,15918.55 1447.64,15996.81 1658.22,16846.07 1269.69,16936.08 936.9,15593.75 "/>
    <polygon class="fil2" points="3230.1,17281.55 3422.79,17920.5 2466.98,18457.4 3571.17,18412.71 3763.15,19049.48 2069.94,19526.53 1950.33,19129.84 3241.45,18766.03 1857.54,18822.07 1749.29,18463.07 2947.92,17792.57 1656.8,18156.38 1536.89,17758.6 "/>
    <polygon class="fil2" points="4170.21,19786.28 4396.72,20243.52 2806.01,20979.85 2579.49,20522.61 "/>
    <polygon class="fil2" points="4785.25,21113.45 5018.78,21566.57 3829.06,22139.61 4193.31,22846.18 3804.46,23033.48 3206.68,21873.8 "/>
    <polygon class="fil2" points="5199.25,21644.83 5720.72,21698.54 5533.7,23393.8 5012.16,23340.02 "/>
    <polygon class="fil2" points="6682.75,21959.45 7203.89,22004.68 7148.7,22598.87 7718.57,22648.37 7773.76,22054.19 8297.35,22099.74 8139.51,23797.72 7615.92,23752.17 7679.78,23065.51 7109.91,23016 7046.05,23702.67 6524.82,23657.35 "/>
    <path class="fil2" d="M10151.71 23659.53l-596.12 -11.89 -87.99 279.72 -534.63 -10.65 672.76 -1691.76 570.5 11.34 600.39 1717.18 -547.64 -10.96 -77.27 -282.98zm-101.7 -370.96l-174.16 -616.41 -199.24 609.02 373.4 7.39z"/>
    <polygon class="fil2" points="11565.59,22210.34 12054.25,22192.54 12728.11,23111.83 12691.45,22169.38 13184.45,22151.5 13250.76,23855.08 12757.76,23873.03 12087.36,22960.74 12123.71,23896.04 11631.89,23913.91 "/>
    <path class="fil2" d="M15685.71 21616.47l288.09 -421.41 877.28 560.45c87.04,55.57 160.2,120.7 220.44,195.24 59.92,74.38 100.84,157.15 121.97,247.85 21.21,90.78 23.1,172.85 6.3,247.08 -23.57,102.9 -74.34,211.63 -153.03,326.82 -45.41,66.45 -99.73,135.85 -163.75,207.82 -63.63,72.21 -128.28,125.06 -194.19,158.79 -65.91,33.73 -141.44,54.95 -226.28,63.88 -84.75,8.86 -161.78,2.65 -231.08,-18.42 -111.33,-33.57 -203.18,-73.52 -275.48,-119.69l-877.35 -560.45 288.09 -421.32 898.25 573.74c80.49,51.45 157.36,70.8 230.29,58.44 73.48,-12.43 135.22,-55.26 185.44,-128.7 49.59,-72.52 66.46,-144.02 50.14,-213.82 -16.08,-69.25 -65.36,-130.41 -146.88,-182.49l-898.25 -573.81z"/>
    <polygon class="fil2" points="16356.42,20180.41 16652.71,19579.54 17735.61,19793.9 16880.88,19116.79 17176.06,18518.02 18768.12,19251.48 18584.26,19624.54 17370.25,19065.18 18441.56,19913.9 18275.12,20251.44 16918.96,19980.58 18132.97,20539.87 17948.56,20913.86 "/>
    <path class="fil2" d="M17896.36 16534.1l125.68 -490.27 1020.77 244.59c101.23,24.25 192.69,61.87 275.23,112.7 82.24,50.75 149.41,115.49 200.73,194.15 51.33,78.65 81.53,155.44 91.38,230.83 13.41,104.54 3.24,223.45 -31.14,357.44 -19.79,77.26 -46.99,160.26 -82.47,248.87 -34.93,88.6 -77.58,159.25 -127.96,212.41 -50.54,53.08 -114.32,97.46 -191.19,133.29 -76.87,35.75 -151.54,54.79 -224.15,57.36 -116.53,4.35 -216.89,-3.58 -301.02,-23.71l-1020.77 -244.59 125.76 -490.26 1045.05 250.42c93.66,22.46 172.74,15.85 237.23,-19.36 64.89,-35.51 108.33,-95.83 130.25,-181.32 21.6,-84.33 12.77,-157.15 -26.73,-217.7 -39.18,-60.08 -106.75,-101.74 -201.6,-124.51l-1045.05 -250.34z"/>
    <polygon class="fil2" points="18346.95,15081.87 18414.43,14419.53 19508.37,14265.57 18466.47,13909.29 18533.72,13249.28 20288.82,13416.38 20246.96,13827.53 18908.62,13700.14 20214.48,14146.57 20176.55,14518.7 18805.81,14709.28 20144.15,14836.66 20102.13,15248.98 "/>
    <path class="fil3" d="M2670.16 8405.36c304.65,0 551.66,252.21 551.66,563.25 0,311.04 -247.01,563.25 -551.66,563.25 -304.57,0 -551.58,-252.21 -551.58,-563.25 0,-311.04 247.01,-563.25 551.58,-563.25z"/>
    <path class="fil3" d="M18511.33 8405.36c304.73,0 551.74,252.21 551.74,563.25 0,311.04 -247.01,563.25 -551.74,563.25 -304.49,0 -551.58,-252.21 -551.58,-563.25 0,-311.04 247.09,-563.25 551.58,-563.25z"/>
   </g>
   <path class="fil4" d="M5480.35 5665.08c3356.96,-730.21 6714.3,-708.04 10071.88,0 1516.59,2428.44 2263.18,4856.57 2304.38,7284.78l0.23 11.12 -14756.43 0 1.23 -63.03c52.31,-2410.85 823.46,-4821.71 2378.71,-7232.87z"/>
   <g>
    <g>
     <path class="fil5 str0" d="M11299.89 15795.32c0,0 835.97,2628.12 1108.76,3264.37 0,0 -457.58,-51.59 -610.11,-329.59 0,0 82.13,349.65 152.53,507.28 0,0 -469.32,-117.51 -510.39,-318.13 0,0 11.73,309.53 32.27,447.1 0,0 -478.12,-197.76 -519.19,-398.37 0,0 -55.73,255.07 -46.93,435.63 0,0 -416.52,-166.23 -437.05,-464.29l0 5.73c-20.53,298.06 -437.06,461.42 -437.06,461.42 8.8,-177.69 -46.93,-432.76 -46.93,-432.76 -41.06,200.62 -519.18,398.37 -519.18,398.37 20.53,-140.43 29.33,-447.09 29.33,-447.09 -41.06,197.75 -507.45,318.12 -507.45,318.12 70.4,-160.5 152.53,-507.28 152.53,-507.28 -152.53,278 -613.05,326.72 -613.05,326.72 275.73,-636.25 1111.7,-3261.5 1111.7,-3261.5l1660.22 -5.73z"/>
     <g>
      <path class="fil6 str0" d="M9751.13 15889.89c0,0 -325.59,2060.66 -1170.36,3155.47"/>
      <path class="fil6 str0" d="M9821.53 15938.62c0,0 -132,2309.99 -833.04,3304.49"/>
      <path class="fil6 str0" d="M9985.79 15998.8c0,0 0,2974.91 -519.18,3373.28"/>
      <path class="fil6 str0" d="M10229.25 16099.11c0,0 164.26,1960.34 -196.53,3307.36"/>
      <path class="fil6 str0" d="M11167.89 15869.83c0,0 325.59,2060.65 1170.36,3155.46"/>
      <path class="fil6 str0" d="M11094.56 15918.55c0,0 134.93,2310 835.97,3304.5"/>
      <path class="fil6 str0" d="M10933.23 15978.74c0,0 0,2974.91 519.18,3373.28"/>
      <path class="fil6 str0" d="M10686.84 16079.05c0,0 -161.33,1960.34 199.46,3307.36"/>
      <line class="fil6 str0" x1="10475.64" y1="16167.9" x2="10475.64" y2= "18939.32" />
     </g>
    </g>
    <g>
     <path class="fil5 str0" d="M10270.32 16675.18c0,0 11.73,398.37 205.32,607.59 0,0 193.6,-229.28 243.46,-627.66l-448.78 20.07z"/>
     <path class="fil5 str0" d="M10067.92 16457.36c0,0 0,366.85 181.86,567.47 0,0 214.13,-260.81 225.86,-647.72 0,0 8.8,527.35 202.4,676.38 0,0 222.92,-197.76 202.39,-687.84 0,0 -618.91,-206.35 -803.71,60.18l-8.8 31.53z"/>
     <path class="fil6 str0" d="M10067.92 16457.36c0,0 0,366.85 181.86,567.47 0,0 214.13,-260.81 225.86,-647.72 0,0 8.8,527.35 202.4,676.38 0,0 222.92,-197.76 202.39,-687.84 0,0 -618.91,-206.35 -803.71,60.18"/>
     <path class="fil5 str0" d="M9915.39 16196.56c0,0 -41.06,389.77 152.53,619.05 0,0 214.13,-349.65 214.13,-567.47 0,0 -20.53,487.22 193.59,627.66 0,0 222.93,-329.59 222.93,-607.6 0,0 29.33,427.04 202.39,587.53 0,0 193.6,-80.24 193.6,-776.68l-618.92 149.03 -560.25 -31.52z"/>
     <path class="fil5 str0" d="M9742.33 16079.05c0,0 -11.73,326.72 120.27,427.03 0,0 225.86,-149.03 225.86,-257.94 0,0 49.86,289.47 140.79,338.19 0,0 225.86,-189.16 234.66,-329.59 0,0 143.73,269.4 255.19,349.65 0,0 181.86,-209.22 111.47,-467.15 0,0 102.66,298.06 255.19,415.56 0,0 269.86,-492.95 82.13,-556 -1029.57,-349.65 -1425.56,80.25 -1425.56,80.25z"/>
     <path class="fil5 str0" d="M11299.89 15809.65c20.53,197.75 -90.93,458.55 -90.93,458.55 -143.73,-80.24 -234.66,-209.21 -234.66,-209.21l0 0c20.53,157.63 -93.87,306.66 -93.87,306.66 -99.73,-77.38 -211.19,-186.29 -211.19,-186.29l0 0c0,157.63 -193.6,278 -193.6,278 -164.26,-149.03 -193.59,-298.06 -193.59,-298.06l0 0c-11.73,68.78 -234.66,189.15 -234.66,189.15 -61.6,-100.31 -111.46,-320.99 -111.46,-320.99l0 0c0,100.31 -193.6,180.56 -193.6,180.56 -123.19,-80.25 -82.13,-418.44 -82.13,-418.44l1639.69 20.07z"/>
     <path class="fil6 str0" d="M11299.89 15809.65c20.53,197.75 -90.93,458.55 -90.93,458.55 -143.73,-80.24 -234.66,-209.21 -234.66,-209.21l0 0c20.53,157.63 -93.87,306.66 -93.87,306.66 -99.73,-77.38 -211.19,-186.29 -211.19,-186.29l0 0c0,157.63 -193.6,278 -193.6,278 -164.26,-149.03 -193.59,-298.06 -193.59,-298.06l0 0c-11.73,68.78 -234.66,189.15 -234.66,189.15 -61.6,-100.31 -111.46,-320.99 -111.46,-320.99l0 0c0,100.31 -193.6,180.56 -193.6,180.56 -123.19,-80.25 -82.13,-418.44 -82.13,-418.44"/>
    </g>
    <path class="fil1 str0" d="M6105.11 15631.95c0,0 615.98,447.1 865.31,1054.69 20.53,48.72 70.4,97.44 0,169.09 -70.4,68.79 -181.86,429.9 -296.26,487.22 -38.13,20.07 -539.72,-805.34 -1067.7,-1203.71 0,0 507.45,48.72 742.11,209.21 0,0 -132,-518.74 -243.46,-716.5z"/>
    <path class="fil1 str0" d="M6814.96 17153.8c0,0 -29.34,-77.38 -90.93,-97.45 -61.6,-20.06 -70.4,28.66 -61.6,80.25 11.73,48.72 85.06,134.7 11.73,209.22 0,0 44,-31.53 67.46,-63.05 23.47,-31.53 73.34,-128.97 73.34,-128.97z"/>
    <path class="fil1 str0" d="M14843.24 15631.95c0,0 -615.98,447.1 -865.3,1054.69 -20.54,48.72 -70.4,97.44 0,169.09 70.4,68.79 181.86,429.9 296.26,487.22 41.06,20.07 539.71,-805.34 1067.7,-1203.71 0,0 -507.46,48.72 -742.11,209.21 0,0 131.99,-518.74 243.45,-716.5z"/>
    <path class="fil1 str0" d="M14133.4 17153.8c0,0 29.33,-77.38 90.93,-97.45 61.6,-20.06 73.33,28.66 61.6,80.25 -8.8,48.72 -85.07,134.7 -11.73,209.22 0,0 -44,-31.53 -67.47,-63.05 -23.47,-31.53 -73.33,-128.97 -73.33,-128.97z"/>
    <path class="fil1 str0" d="M10475.64 18704.3c2229.27,0 3472.97,-1355.61 3622.56,-1507.51 0,0 82.13,-180.56 167.2,-140.44 0,0 -287.46,-389.77 -357.86,-427.03 -73.33,-37.26 -146.66,-68.78 -519.18,295.2 -82.14,80.25 -1284.77,1094.81 -2912.72,1094.81 -1630.88,0 -2833.51,-1014.56 -2912.71,-1094.81 -375.45,-363.98 -448.78,-332.46 -522.11,-295.2 -70.4,37.26 -357.86,427.03 -357.86,427.03 85.06,-40.12 167.19,140.44 167.19,140.44 152.53,151.9 1393.3,1507.51 3625.49,1507.51z"/>
    <g>
     <g>
      <path class="fil5 str0" d="M12399.85 15202.05c0,0 774.38,1444.47 885.84,1573.44 111.47,128.97 275.73,229.28 366.66,269.4 90.93,37.26 346.12,28.66 407.72,257.94 0,0 20.53,60.19 -61.6,100.31 0,0 -29.33,97.44 -132,128.97 0,0 -90.93,97.44 -152.52,88.85 0,0 -132,197.75 -173.07,108.9 0,0 29.34,-88.84 -11.73,-149.03 -41.06,-60.18 -82.13,-149.03 -140.79,-149.03 -61.6,0 -82.14,-80.25 -114.4,-160.5 -29.33,-77.38 -111.46,-77.38 -152.53,-77.38 -41.07,0 -79.2,-40.12 -222.93,88.85 0,0 -102.66,-160.5 8.8,-249.34 0,0 41.07,-68.79 -79.19,-177.7 -123.2,-111.77 -1058.91,-1243.84 -1058.91,-1243.84l630.65 -409.84z"/>
      <g>
       <path class="fil6 str0" d="M13998.47 17403.14c0,0 0,-91.71 -132,-140.43 -131.99,-48.73 -205.32,-88.85 -263.99,-120.38"/>
       <path class="fil6 str0" d="M13866.47 17532.11c0,0 41.07,-80.25 -61.59,-140.43 -102.67,-60.19 -243.46,-157.63 -316.79,-217.82"/>
       <path class="fil6 str0" d="M13713.95 17620.96c0,0 20.53,-60.19 -32.27,-120.38 -49.87,-60.18 -79.2,-68.78 -132,-108.9 -49.86,-40.13 -131.99,-108.91 -161.32,-177.7"/>
      </g>
      <g>
       <path class="fil6 str0" d="M12502.52 15950.08c0,0 -184.8,97.44 -378.39,77.38"/>
       <path class="fil6 str0" d="M12552.38 16038.93c0,0 -184.79,100.31 -378.39,80.24"/>
       <path class="fil6 str0" d="M12634.51 16119.17c0,0 -184.79,97.45 -378.39,77.39"/>
       <path class="fil6 str0" d="M12713.71 16208.02c0,0 -181.86,100.31 -375.46,80.25"/>
       <path class="fil6 str0" d="M12775.31 16296.86c0,0 -181.86,100.31 -375.46,80.25"/>
       <path class="fil6 str0" d="M12857.44 16385.71c0,0 -181.86,100.31 -375.46,80.25"/>
       <path class="fil6 str0" d="M12927.84 16465.96c0,0 -181.86,100.31 -375.46,80.25"/>
       <path class="fil6 str0" d="M12948.37 16566.27c0,0 -132,68.78 -325.59,48.72"/>
       <path class="fil6 str0" d="M13021.7 16635.05c0,0 -143.73,80.25 -337.32,60.19"/>
       <path class="fil6 str0" d="M13071.57 16735.36c0,0 -111.47,68.79 -305.06,48.72"/>
       <path class="fil6 str0" d="M13100.9 16804.15c0,0 -90.93,60.18 -284.53,40.12"/>
       <path class="fil6 str0" d="M13121.43 16875.8c0,0 -49.86,48.72 -243.46,28.66"/>
      </g>
     </g>
     <g>
      <path class="fil5 str0" d="M12053.73 16018.86c0,0 -284.53,-80.24 -357.86,-257.94l152.53 -338.18c0,0 173.06,326.72 205.33,596.12z"/>
      <path class="fil5 str0" d="M12511.32 15253.64c0,0 325.59,318.13 375.45,386.91 0,0 -416.52,20.06 -527.98,-140.43l152.53 -246.48z"/>
      <path class="fil5 str0" d="M12461.45 15462.86c0,0 325.59,237.88 305.06,467.16 0,0 -366.66,48.72 -703.98,-369.72 0,0 428.25,200.62 398.92,578.94 0,0 -175.99,80.24 -539.72,-209.22 0,0 -205.32,-180.56 90.93,-467.16 296.26,-289.47 387.19,-40.12 448.79,0z"/>
      <path class="fil5 str0" d="M12379.32 15161.93c0,0 255.19,169.09 305.06,418.44 0,0 -366.66,180.55 -589.59,-149.04 -202.39,-295.19 8.8,31.53 8.8,31.53 0,0 184.8,137.57 225.86,535.94 0,0 -349.05,68.79 -621.84,-349.65 -155.47,-232.15 478.12,-716.5 671.71,-487.22z"/>
      <path class="fil5 str0" d="M12215.06 14803.68c0,0 460.52,498.68 510.38,518.75 0,0 -325.59,60.18 -630.65,-229.28 0,0 395.99,318.12 346.13,487.22 0,0 -275.73,88.84 -510.39,-338.19 0,0 366.66,338.19 305.06,558.87 0,0 -234.66,48.72 -498.65,-338.19 0,0 263.99,266.54 263.99,447.1 0,0 -263.99,-71.65 -437.05,-269.41 0,0 416.52,-676.37 651.18,-836.87z"/>
      <path class="fil5 str0" d="M12235.59 14614.52c0,0 357.86,269.41 366.66,449.97 0,0 -284.53,28.66 -507.46,-149.04 0,0 214.13,108.91 264,375.45 0,0 -255.2,-8.6 -387.19,-149.03 0,0 263.99,189.15 193.59,289.46 0,0 -152.53,31.53 -284.52,-169.09 0,0 99.73,149.03 152.53,349.65 0,0 -146.67,8.6 -325.59,-140.43 0,0 131.99,169.09 90.93,338.19 0,0 -184.8,-8.6 -284.53,-169.1l721.58 -1026.03z"/>
     </g>
    </g>
    <g>
     <g>
      <path class="fil5 str0" d="M8548.5 15202.05c0,0 -774.37,1444.47 -885.84,1573.44 -111.46,128.97 -275.72,229.28 -366.65,269.4 -90.93,37.26 -346.12,28.66 -407.72,257.94 0,0 -20.54,60.19 61.6,100.31 0,0 32.26,97.44 131.99,128.97 0,0 93.86,97.44 152.53,88.85 0,0 134.93,197.75 173.06,108.9 0,0 -29.33,-88.84 11.73,-149.03 41.07,-60.18 82.14,-149.03 143.73,-149.03 58.67,0 79.2,-80.25 111.47,-160.5 29.33,-77.38 111.46,-77.38 152.53,-77.38 41.06,0 82.13,-40.12 222.92,88.85 0,0 102.67,-160.5 -8.8,-249.34 0,0 -41.06,-68.79 79.2,-177.7 123.2,-111.77 1061.83,-1243.84 1061.83,-1243.84l-633.58 -409.84z"/>
      <g>
       <path class="fil6 str0" d="M6949.89 17403.14c0,0 0,-91.71 131.99,-140.43 132,-48.73 205.33,-88.85 266.93,-120.38"/>
       <path class="fil6 str0" d="M7081.88 17532.11c0,0 -41.06,-80.25 61.6,-140.43 102.66,-60.19 243.46,-157.63 316.79,-217.82"/>
       <path class="fil6 str0" d="M7234.41 17620.96c0,0 -20.53,-60.19 32.27,-120.38 49.86,-60.18 82.13,-68.78 131.99,-108.9 49.87,-40.13 132,-108.91 164.26,-177.7"/>
      </g>
      <g>
       <path class="fil6 str0" d="M8448.77 15950.08c0,0 181.86,97.44 375.46,77.38"/>
       <path class="fil6 str0" d="M8395.97 16038.93c0,0 184.8,100.31 378.39,80.24"/>
       <path class="fil6 str0" d="M8313.84 16119.17c0,0 184.8,97.45 378.39,77.39"/>
       <path class="fil6 str0" d="M8234.65 16208.02c0,0 181.86,100.31 375.45,80.25"/>
       <path class="fil6 str0" d="M8173.05 16296.86c0,0 181.86,100.31 375.45,80.25"/>
       <path class="fil6 str0" d="M8090.92 16385.71c0,0 184.79,100.31 378.39,80.25"/>
       <path class="fil6 str0" d="M8020.52 16465.96c0,0 181.86,100.31 375.45,80.25"/>
       <path class="fil6 str0" d="M7999.99 16566.27c0,0 131.99,68.78 325.59,48.72"/>
       <path class="fil6 str0" d="M7929.59 16635.05c0,0 140.79,80.25 334.39,60.19"/>
       <path class="fil6 str0" d="M7876.79 16735.36c0,0 111.46,68.79 305.06,48.72"/>
       <path class="fil6 str0" d="M7847.46 16804.15c0,0 90.93,60.18 284.52,40.12"/>
       <path class="fil6 str0" d="M7826.93 16875.8c0,0 49.86,48.72 243.45,28.66"/>
      </g>
     </g>
     <g>
      <path class="fil5 str0" d="M8894.63 16018.86c0,0 287.45,-80.24 357.85,-257.94l-152.53 -338.18c0,0 -173.06,326.72 -205.32,596.12z"/>
      <path class="fil5 str0" d="M8437.04 15253.64c0,0 -325.59,318.13 -375.46,386.91 0,0 416.53,20.06 527.99,-140.43l-152.53 -246.48z"/>
      <path class="fil5 str0" d="M8486.9 15462.86c0,0 -325.59,237.88 -305.05,467.16 0,0 366.65,48.72 703.98,-369.72 0,0 -428.26,200.62 -398.93,578.94 0,0 176,80.24 542.66,-209.22 0,0 202.39,-180.56 -93.87,-467.16 -293.32,-289.47 -387.19,-40.12 -448.79,0z"/>
      <path class="fil5 str0" d="M8569.04 15161.93c0,0 -255.2,169.09 -305.06,418.44 0,0 366.65,180.55 589.58,-149.04 202.39,-295.19 -8.8,31.53 -8.8,31.53 0,0 -181.86,137.57 -222.93,535.94 0,0 346.13,68.79 618.92,-349.65 155.46,-232.15 -478.12,-716.5 -671.71,-487.22z"/>
      <path class="fil5 str0" d="M8733.3 14803.68c0,0 -457.59,498.68 -510.39,518.75 0,0 325.59,60.18 630.65,-229.28 0,0 -395.99,318.12 -346.12,487.22 0,0 275.72,88.84 510.38,-338.19 0,0 -366.65,338.19 -305.06,558.87 0,0 234.66,48.72 498.66,-338.19 0,0 -264,266.54 -264,447.1 0,0 264,-71.65 437.06,-269.41 0,0 -416.52,-676.37 -651.18,-836.87z"/>
      <path class="fil5 str0" d="M8712.76 14614.52c0,0 -357.85,269.41 -366.65,449.97 0,0 284.52,28.66 507.45,-149.04 0,0 -211.19,108.91 -263.99,375.45 0,0 255.19,-8.6 387.19,-149.03 0,0 -264,189.15 -193.6,289.46 0,0 152.53,31.53 284.53,-169.09 0,0 -99.73,149.03 -152.53,349.65 0,0 146.66,8.6 325.59,-140.43 0,0 -132,169.09 -90.93,338.19 0,0 184.79,-8.6 284.52,-169.1l-721.58 -1026.03z"/>
     </g>
    </g>
    <path class="fil5 str0" d="M11352.89 10873.24c0,0 346.12,137.57 489.85,40.13 140.8,-100.31 305.06,-518.75 997.3,-796.75 692.24,-278 2240.98,-876.99 2587.1,-2966.28 0,0 143.73,180.55 123.2,478.61 -20.54,298.07 -41.07,1392.87 -1487.15,2367.3 0,0 1384.48,-894.18 1627.94,-2307.11 0,0 164.26,495.81 102.66,756.62 -61.59,257.94 -510.38,1292.55 -1528.21,1888.68 0,0 1425.55,-914.25 1671.94,-2049.18 0,0 222.93,378.31 -20.53,876.99 -246.39,495.82 -712.77,1152.13 -1671.94,1610.68 0,0 1507.68,-636.25 1853.8,-1891.54 0,0 143.73,378.31 -41.07,736.55 -181.86,358.25 -445.85,957.24 -1792.2,1533.3 0,0 1751.14,-636.25 1956.46,-1731.05 0,0 123.2,358.25 -41.06,656.31 -164.26,298.06 -530.91,1014.56 -1935.93,1392.86 0,0 1610.34,-358.24 2079.66,-1473.11 0,0 140.79,1335.55 -2059.13,1791.24 0,0 1733.54,-338.19 2079.66,-1272.5 0,0 140.79,1134.93 -2199.92,1650.81 0,0 1812.73,-378.31 2199.92,-1114.87 0,0 38.13,1014.56 -2343.65,1453.05 0,0 1648.48,-237.87 2261.52,-1014.55 0,0 -164.26,636.24 -530.91,816.8 -366.66,177.69 -1141.03,556 -2015.13,515.88 0,0 1466.61,40.12 2402.31,-736.56 0,0 20.53,478.62 -733.3,836.87 -753.84,358.24 -1853.8,237.87 -1853.8,237.87 0,0 2018.06,180.56 2546.04,-636.24 0,0 -161.33,616.18 -935.7,836.86 -774.37,217.82 -1384.48,120.37 -1874.33,40.12 0,0 1730.6,358.25 2546.04,-260.8 0,0 -346.12,676.37 -1507.68,736.56 -753.84,40.12 -1202.62,-278 -1202.62,-278 0,0 1079.42,656.31 2364.18,120.37 0,0 -404.79,495.81 -1079.43,495.81 -551.45,0 -1305.29,-157.63 -1630.87,-515.87 0,0 592.51,756.61 2384.71,458.55 0,0 -407.72,338.19 -938.63,338.19 -527.98,0 -1363.95,-398.37 -1689.54,-619.05 0,0 1079.43,716.49 2117.79,679.23 0,0 -366.66,278 -894.64,197.76 -530.91,-80.25 -1223.15,-538.81 -1346.35,-656.31 0,0 918.1,716.49 1733.54,756.62 0,0 -733.31,515.87 -1792.2,-498.68 0,0 874.1,716.49 1199.69,736.55 0,0 -569.05,278 -1363.95,-498.68 -794.91,-773.81 -815.44,-3720.04 -815.44,-3720.04z"/>
    <path class="fil5 str0" d="M9601.76 10873.24c0,0 -346.12,137.57 -489.85,40.13 -140.8,-100.31 -305.06,-518.75 -997.3,-796.75 -692.24,-278 -2240.98,-876.99 -2587.1,-2966.28 0,0 -143.73,180.55 -123.2,478.61 20.54,298.07 41.07,1392.87 1487.15,2367.3 0,0 -1384.48,-894.18 -1627.94,-2307.11 0,0 -164.26,495.81 -102.66,756.62 61.59,257.94 510.38,1292.55 1528.21,1888.68 0,0 -1425.55,-914.25 -1671.94,-2049.18 0,0 -222.93,378.31 20.53,876.99 246.39,495.82 712.77,1152.13 1671.94,1610.68 0,0 -1507.68,-636.25 -1853.8,-1891.54 0,0 -143.73,378.31 41.07,736.55 181.86,358.25 448.78,957.24 1792.2,1533.3 0,0 -1751.14,-636.25 -1956.46,-1731.05 0,0 -120.27,358.25 41.06,656.31 164.26,298.06 530.91,1014.56 1935.93,1392.86 0,0 -1610.34,-358.24 -2076.72,-1473.11 0,0 -143.73,1335.55 2056.19,1791.24 0,0 -1730.61,-338.19 -2076.73,-1272.5 0,0 -143.72,1134.93 2199.92,1650.81 0,0 -1812.73,-378.31 -2199.92,-1114.87 0,0 -41.06,1014.56 2340.72,1453.05 0,0 -1648.48,-237.87 -2261.52,-1014.55 0,0 164.26,636.24 530.91,816.8 366.66,177.69 1141.03,556 2015.13,515.88 0,0 -1466.61,40.12 -2402.31,-736.56 0,0 -20.53,478.62 733.3,836.87 753.84,358.24 1853.8,237.87 1853.8,237.87 0,0 -2018.06,180.56 -2546.04,-636.24 0,0 161.33,616.18 935.7,836.86 774.37,217.82 1387.42,120.37 1874.33,40.12 0,0 -1730.6,358.25 -2546.04,-260.8 0,0 346.12,676.37 1507.68,736.56 753.84,40.12 1202.62,-278 1202.62,-278 0,0 -1079.42,656.31 -2364.18,120.37 0,0 404.79,495.81 1079.43,495.81 551.45,0 1305.29,-157.63 1630.87,-515.87 0,0 -592.51,756.61 -2384.71,458.55 0,0 407.72,338.19 938.63,338.19 527.98,0 1363.95,-398.37 1689.54,-619.05 0,0 -1079.43,716.49 -2117.79,679.23 0,0 366.66,278 894.64,197.76 530.91,-80.25 1223.15,-538.81 1346.35,-656.31 0,0 -918.1,716.49 -1730.61,756.62 0,0 733.31,515.87 1792.2,-498.68 0,0 -877.03,716.49 -1202.62,736.55 0,0 569.05,278 1363.95,-498.68 794.9,-773.81 815.44,-3720.04 815.44,-3720.04z"/>
    <g>
     <g>
      <path class="fil5 str0" d="M13224.09 10375.71c-41.06,-80.24 49.87,-137.56 255.2,-209.21 211.19,-71.65 428.25,-117.51 428.25,-117.51 0,0 -560.25,189.16 -601.32,226.41 -41.06,40.13 -82.13,100.31 -82.13,100.31z"/>
      <g>
       <path class="fil5 str0" d="M13332.62 10705.3c-26.4,-100.31 11.74,-120.37 67.47,-149.03 46.93,-14.33 137.86,-34.39 217.06,-45.85 187.73,-34.4 363.72,-94.58 363.72,-94.58 0,0 -501.58,149.03 -542.65,180.56 -41.06,28.66 -105.6,108.9 -105.6,108.9z"/>
       <path class="fil5 str0" d="M13957.4 11232.65c0,0 -255.19,137.56 -469.31,100.31 -214.13,-40.13 -120.27,28.66 -120.27,28.66 0,-57.32 0,-68.79 46.93,-88.85 41.07,-8.6 102.67,-2.87 178.93,8.6 214.13,31.52 375.46,-68.79 375.46,-68.79l-11.74 20.07z"/>
       <path class="fil5 str0" d="M13115.56 13261.77c0,0 -246.39,-80.24 -437.05,-183.42 -67.46,-40.12 -123.2,-71.65 -161.33,-111.77 -8.8,2.86 85.07,-71.65 164.26,-42.99 0,0 -99.73,31.52 -79.19,60.18 20.53,28.66 513.31,278 513.31,278z"/>
       <path class="fil5 str0" d="M13294.49 13043.96c0,0 -231.72,-54.46 -425.32,-149.03 -76.26,-37.26 -134.93,-71.65 -164.26,-97.45 -17.6,8.6 64.53,-54.45 132,-22.93 0,0 -90.93,8.6 -49.87,28.66 41.07,20.07 507.45,240.75 507.45,240.75z"/>
       <path class="fil5 str0" d="M13455.82 12745.89c0,0 -219.99,-28.66 -419.45,-114.64 -73.33,-31.52 -134.93,-63.05 -167.2,-80.24 -20.53,8.59 46.93,-40.13 102.66,-5.74l8.8 31.53c0,0 410.66,157.63 475.19,169.09z"/>
       <path class="fil5 str0" d="M13071.57 12295.93c0,0 577.84,128.97 604.24,149.03 0,0 -208.26,0 -407.72,-74.51 -76.26,-28.66 -137.86,-54.46 -170.13,-68.79 -26.39,11.47 -43.99,-40.12 0,0l-26.39 -5.73z"/>
       <path class="fil5 str0" d="M13734.48 12187.02c0,0 -196.53,22.93 -401.86,-40.12 -76.26,-22.93 -134.93,-42.99 -170.12,-51.59 -32.27,14.33 -35.2,20.06 -2.94,65.92l35.2 -34.39c0,0 325.59,149.03 539.72,60.18z"/>
       <path class="fil5 str0" d="M13851.81 11868.9c0,0 -181.86,48.72 -390.12,-2.87 -76.27,-20.06 -137.87,-34.39 -176,-40.12 -35.2,17.19 -29.33,34.39 -5.86,83.11l35.19 -40.12c0,0 369.59,160.49 536.79,0z"/>
       <path class="fil5 str0" d="M13291.56 11639.62c-8.8,-51.59 38.13,-71.65 79.2,-88.85 41.06,-2.86 58.66,-2.86 137.86,14.33 208.26,40.13 381.32,-34.39 381.32,-34.39 0,0 -278.66,120.37 -369.59,88.85 -90.93,-28.66 -228.79,20.06 -228.79,20.06z"/>
       <path class="fil5 str0" d="M12461.45 13023.9l-32.27 68.78 445.86 369.71c0,0 -149.6,-71.65 -293.33,-192.02 -64.53,-57.32 -214.12,-151.9 -240.52,-186.29 -5.87,2.87 52.8,-94.58 143.73,-71.65l-23.47 11.47z"/>
       <path class="fil5 str0" d="M13335.56 11075.02c-20.54,-108.91 58.66,-163.37 111.46,-166.23 44,0 126.13,0 246.39,-20.06 214.13,-37.26 249.33,-74.52 249.33,-74.52 0,0 -513.32,169.09 -545.58,189.16 -29.34,20.06 -61.6,71.65 -61.6,71.65z"/>
      </g>
      <path class="fil5 str0" d="M12329.45 13124.21c-102.66,-20.07 -82.13,77.38 -82.13,77.38 82.13,140.43 466.39,398.37 466.39,398.37l-375.46 -358.25 -8.8 -117.5z"/>
     </g>
     <g>
      <path class="fil6 str0" d="M13174.23 10504.68c-93.87,-8.59 -580.78,-137.56 -745.05,229.28"/>
      <path class="fil6 str0" d="M12103.59 12465.03c0,0 41.07,318.12 489.86,309.52"/>
      <path class="fil6 str0" d="M13203.56 10894.46c0,0 -560.25,-100.31 -692.24,108.91"/>
      <path class="fil6 str0" d="M13253.43 11212.58c0,0 -272.8,-68.78 -366.66,-48.72 -90.93,17.2 -202.39,8.6 -366.65,97.45"/>
      <path class="fil6 str0" d="M12531.85 11441.86c0,0 305.06,60.19 569.05,60.19 123.19,0 152.53,-51.59 152.53,-51.59"/>
      <path class="fil6 str0" d="M13162.5 11728.46c-61.6,11.47 -284.53,40.13 -387.19,31.53 -99.73,-11.46 -293.33,-88.85 -325.59,-120.37"/>
      <path class="fil6 str0" d="M13062.77 11997.87c-82.14,11.46 -522.12,-8.6 -621.85,-157.63"/>
      <path class="fil6 str0" d="M12968.9 12227.15c0,0 -407.72,40.12 -601.31,-249.34"/>
      <path class="fil6 str0" d="M12795.84 12416.3c-70.4,0 -325.59,0 -498.65,-237.87"/>
      <path class="fil6 str0" d="M12675.58 12614.06c-61.6,-8.6 -357.86,-97.45 -366.66,-217.82"/>
     </g>
     <g>
      <path class="fil5 str0" d="M7724.26 10375.71c41.07,-80.24 -49.86,-137.56 -255.19,-209.21 -211.19,-71.65 -428.25,-117.51 -428.25,-117.51 0,0 560.25,189.16 601.31,226.41 41.07,40.13 82.13,100.31 82.13,100.31z"/>
      <g>
       <path class="fil5 str0" d="M7615.73 10705.3c26.4,-100.31 -11.73,-120.37 -67.46,-149.03 -46.93,-14.33 -137.87,-34.39 -214.13,-45.85 -190.66,-34.4 -366.66,-94.58 -366.66,-94.58 0,0 501.59,149.03 542.65,180.56 41.07,28.66 105.6,108.9 105.6,108.9z"/>
       <path class="fil5 str0" d="M6990.95 11232.65c0,0 255.19,137.56 469.32,100.31 214.13,-40.13 120.26,28.66 120.26,28.66 0,-57.32 0,-68.79 -46.93,-88.85 -41.06,-8.6 -102.66,-2.87 -178.93,8.6 -214.12,31.52 -372.52,-68.79 -372.52,-68.79l8.8 20.07z"/>
       <path class="fil5 str0" d="M7832.79 13261.77c0,0 246.39,-80.24 437.05,-183.42 67.47,-40.12 123.2,-71.65 161.33,-111.77 11.74,2.86 -85.06,-71.65 -164.26,-42.99 0,0 99.73,31.52 79.2,60.18 -20.53,28.66 -513.32,278 -513.32,278z"/>
       <path class="fil5 str0" d="M7653.86 13043.96c0,0 231.73,-54.46 425.32,-149.03 76.27,-37.26 134.93,-71.65 164.27,-97.45 17.6,8.6 -64.54,-54.45 -132,-22.93 0,0 90.93,8.6 49.86,28.66 -41.06,20.07 -507.45,240.75 -507.45,240.75z"/>
       <path class="fil5 str0" d="M7492.54 12745.89c0,0 222.92,-28.66 419.45,-114.64 76.26,-31.52 134.93,-63.05 167.19,-80.24 20.54,8.59 -46.93,-40.13 -102.66,-5.74l-8.8 31.53c0,0 -410.65,157.63 -475.18,169.09z"/>
       <path class="fil5 str0" d="M7876.79 12295.93c0,0 -577.85,128.97 -604.25,149.03 0,0 208.26,0 410.66,-74.51 73.33,-28.66 134.93,-54.46 167.19,-68.79 26.4,11.47 46.93,-40.12 0,0l26.4 -5.73z"/>
       <path class="fil5 str0" d="M7213.88 12187.02c0,0 196.52,22.93 401.85,-40.12 76.27,-22.93 134.93,-42.99 170.13,-51.59 32.27,14.33 35.2,20.06 2.93,65.92l-35.2 -34.39c0,0 -325.59,149.03 -539.71,60.18z"/>
       <path class="fil5 str0" d="M7096.55 11868.9c0,0 184.79,48.72 390.12,-2.87 76.26,-20.06 137.86,-34.39 175.99,-40.12 35.2,17.19 29.34,34.39 8.8,83.11l-38.13 -40.12c0,0 -369.59,160.49 -536.78,0z"/>
       <path class="fil5 str0" d="M7656.8 11639.62c11.73,-51.59 -38.14,-71.65 -79.2,-88.85 -41.07,-2.86 -58.67,-2.86 -137.86,14.33 -208.26,40.13 -381.32,-34.39 -381.32,-34.39 0,0 278.65,120.37 369.58,88.85 93.87,-28.66 228.8,20.06 228.8,20.06z"/>
       <path class="fil5 str0" d="M8486.9 13023.9l32.27 68.78 -445.85 369.71c0,0 149.59,-71.65 293.32,-192.02 64.53,-57.32 214.13,-151.9 240.53,-186.29 5.86,2.87 -52.8,-94.58 -143.73,-71.65l23.46 11.47z"/>
       <path class="fil5 str0" d="M7612.8 11075.02c20.53,-108.91 -58.67,-163.37 -111.46,-166.23 -44,0 -126.13,0 -246.4,-20.06 -214.12,-37.26 -249.32,-74.52 -249.32,-74.52 0,0 516.25,169.09 545.58,189.16 29.33,20.06 61.6,71.65 61.6,71.65z"/>
      </g>
      <path class="fil5 str0" d="M8621.83 13124.21c99.73,-20.07 79.2,77.38 79.2,77.38 -79.2,140.43 -466.38,398.37 -466.38,398.37l375.45 -358.25 11.73 -117.5z"/>
     </g>
     <g>
      <path class="fil5 str0" d="M7774.13 10504.68c93.86,-8.59 580.78,-137.56 745.04,229.28 0,0 -214.13,-157.63 -296.26,-169.09 -82.13,-8.6 -448.78,-60.19 -448.78,-60.19z"/>
      <path class="fil5 str0" d="M8354.91 12774.55c0,0 296.26,-120.37 489.85,-309.52 0,0 -41.06,318.12 -489.85,309.52z"/>
      <path class="fil5 str0" d="M7744.79 10894.46c0,0 560.25,-100.31 692.25,108.91 0,0 -173.06,-60.19 -334.39,-68.79 -164.26,-11.46 -357.86,-40.12 -357.86,-40.12z"/>
      <path class="fil5 str0" d="M7694.93 11212.58c0,0 272.79,-68.78 366.65,-48.72 90.94,17.2 202.4,8.6 366.66,97.45 0,0 -275.72,-28.66 -366.66,-28.66 -93.86,0 -366.65,-20.07 -366.65,-20.07z"/>
      <path class="fil5 str0" d="M7694.93 11450.46c79.2,-8.6 721.58,-8.6 721.58,-8.6 0,0 -305.06,60.19 -569.05,60.19 -123.2,0 -152.53,-51.59 -152.53,-51.59z"/>
      <path class="fil5 str0" d="M7785.86 11728.46c61.6,11.47 284.52,40.13 387.19,31.53 102.66,-11.46 296.26,-88.85 325.59,-120.37 0,0 -222.93,40.12 -316.79,51.59 -90.93,8.59 -395.99,37.25 -395.99,37.25z"/>
      <path class="fil5 str0" d="M7888.52 11997.87c79.2,11.46 519.19,-8.6 618.92,-157.63 0,0 -222.93,68.78 -305.06,88.84 -82.13,20.07 -313.86,68.79 -313.86,68.79z"/>
      <path class="fil5 str0" d="M7979.45 12227.15c0,0 407.72,40.12 601.32,-249.34 0,0 -164.26,100.31 -266.93,140.43 -99.73,40.12 -334.39,108.91 -334.39,108.91z"/>
      <path class="fil5 str0" d="M8152.52 12416.3c70.39,0 325.59,0 498.65,-237.87 0,0 -164.27,60.18 -222.93,97.44 -61.6,40.12 -275.72,140.43 -275.72,140.43z"/>
      <path class="fil5 str0" d="M8275.71 12614.06c58.67,-8.6 354.92,-97.45 366.66,-217.82 0,0 -123.2,40.13 -164.26,68.79 -41.07,31.52 -202.4,149.03 -202.4,149.03z"/>
     </g>
    </g>
    <polygon class="fil1 str0" points="10478.79,11449.3 10478.79,13638.91 12411.79,13638.91 12411.79,11449.3 "/>
    <path class="fil4 str0" d="M12411.79 13638.91c0,0 0,120.37 0,237.88 0,449.96 -346.12,1871.48 -1933,2289.91l0 -2527.79 1933 0z"/>
    <path class="fil1 str0" d="M8542.86 13638.91c0,0 0,120.37 0,237.88 0,449.96 346.12,1871.48 1935.93,2289.91l0 -2527.79 -1935.93 0z"/>
    <polygon class="fil4 str0" points="8542.86,11449.3 8542.86,13638.91 10478.79,13638.91 10478.79,11449.3 "/>
    <path class="fil7 str0" d="M9683.89 12819.24l0 897.05c0,0 0,48.72 0,97.45 0,252.2 173.06,831.13 794.9,1137.79 577.85,-246.48 791.97,-825.4 791.97,-1137.79 0,-48.73 0,-97.45 0,-97.45l0 -897.05 -1586.87 0z"/>
    <polygon class="fil5" points="10027.07,14343.94 10197.2,13830.93 9751.35,13515.67 10302.8,13515.67 10472.92,13005.53 10643.05,13515.67 11191.56,13515.67 10748.65,13830.93 10918.78,14343.94 10472.92,14025.82 "/>
    <g>
     <g>
      <path class="fil8 str1" d="M10252.72 15755.19c0,0 -651.18,-189.15 -976.77,-788.15 -325.59,-596.13 -334.39,-914.25 -334.39,-914.25 0,0 202.39,745.16 425.32,1023.16 225.86,280.87 560.25,547.41 885.84,598.99 0,0 61.6,48.73 0,80.25z"/>
      <path class="fil8 str1" d="M8947.42 14058.52c-90.93,-34.39 -82.13,-120.37 -85.06,-197.75 0,-40.13 -29.33,-91.72 -41.07,-128.97 11.74,28.66 35.2,45.85 58.67,60.18 93.86,57.32 143.73,180.56 67.46,266.54z"/>
      <path class="fil8 str1" d="M8962.09 14058.52c2.93,-57.32 0,-120.37 29.33,-171.96 29.34,-45.86 93.87,-71.65 99.73,-131.84 2.94,57.32 0,108.91 -11.73,166.23 -14.67,60.19 -46.93,123.24 -117.33,137.57z"/>
      <path class="fil8 str1" d="M9023.69 14287.8c2.93,-28.66 2.93,-54.45 8.8,-83.11 8.8,-40.13 0,-77.39 2.93,-114.64 0,-11.47 5.87,-20.07 11.73,-28.66 23.47,-45.86 85.07,-68.79 88,-126.11 -17.6,68.79 26.4,134.7 5.87,197.76 -17.6,57.32 -79.2,91.71 -117.33,140.43l0 14.33z"/>
      <path class="fil6 str1" d="M9023.69 14287.8c2.93,-28.66 2.93,-54.45 8.8,-83.11 8.8,-40.13 0,-77.39 2.93,-114.64 0,-11.47 5.87,-20.07 11.73,-28.66 23.47,-45.86 85.07,-68.79 88,-126.11 -17.6,68.79 26.4,134.7 5.87,197.76 -17.6,57.32 -79.2,91.71 -117.33,140.43"/>
      <path class="fil8 str1" d="M9079.42 14462.63c20.53,-54.46 11.73,-111.78 35.2,-163.37 23.47,-54.45 55.73,-108.9 58.66,-169.09 8.8,71.65 44,140.43 32.27,212.08 -2.93,11.47 -8.8,25.8 -14.67,34.4 -26.4,28.66 -58.66,45.85 -93.86,65.91 -8.8,5.74 -11.73,11.47 -17.6,20.07z"/>
      <path class="fil8 str1" d="M8962.09 14178.89c-29.33,-17.19 -52.8,-45.85 -61.6,-74.51 -8.8,-31.53 -17.6,-60.19 -29.33,-88.85 -5.87,-14.33 -23.47,-22.93 -32.27,-25.79 -32.26,-14.33 -55.73,-40.13 -87.99,-51.59 -20.54,-8.6 -23.47,-37.26 -38.14,-51.59 32.27,60.19 17.6,126.1 35.2,192.02 26.4,85.98 129.07,85.98 211.2,85.98 0,0 2.93,8.6 2.93,14.33z"/>
      <path class="fil8 str1" d="M9009.02 14362.32c-23.46,-17.2 -32.26,-45.86 -52.8,-68.79 -41.06,-48.72 -105.59,-48.72 -158.39,-83.11 -17.6,-8.6 -35.2,-22.93 -44,-40.13 -2.93,28.66 17.6,45.86 32.27,68.79 2.93,2.86 14.66,20.06 17.6,25.79 17.59,28.66 17.59,8.6 32.26,37.26 2.93,5.73 35.2,28.66 38.13,31.53 35.2,42.99 88,40.12 134.93,28.66z"/>
      <path class="fil8 str1" d="M9091.15 14591.6c-41.06,-37.26 -49.86,-88.85 -99.73,-117.51 -49.86,-28.66 -105.59,-31.53 -152.53,-63.05 -14.66,-11.47 -35.19,-20.06 -43.99,-37.26 20.53,31.53 46.93,54.45 67.46,88.85 2.93,2.86 14.67,2.86 17.6,5.73 55.73,63.05 117.33,140.43 211.19,123.24z"/>
      <path class="fil8 str1" d="M9208.48 14800.81c5.87,-28.66 14.67,-60.18 5.87,-88.84 -17.6,-51.59 -23.47,-106.04 -2.93,-154.77 8.8,-25.79 41.06,-40.12 55.73,-65.91 11.73,-22.93 29.33,-42.99 20.53,-68.79 17.6,34.39 5.87,71.65 23.47,103.18 2.93,5.73 14.66,2.86 17.6,8.6 29.33,80.24 -29.34,157.63 -93.87,209.21 -14.66,14.33 -20.53,37.26 -26.4,57.32z"/>
      <path class="fil8 str1" d="M9211.42 14835.21c-26.4,-14.33 -35.2,-45.86 -58.67,-63.06 -44,-31.52 -85.06,-57.32 -134.93,-65.91 -29.33,-8.6 -58.66,-8.6 -90.93,-17.2 -32.26,-8.6 -58.66,-25.79 -82.13,-45.86 67.47,68.79 114.4,163.37 214.13,192.03 52.8,14.33 102.66,-11.47 152.53,0z"/>
      <path class="fil8 str1" d="M9317.01 14995.7c0,-63.05 -32.26,-120.37 -14.66,-183.42 2.93,-17.2 5.86,-34.39 17.6,-51.59 23.46,-31.53 43.99,-57.32 55.73,-94.58 26.4,34.39 26.4,77.38 49.86,114.64 5.87,14.33 11.74,34.39 5.87,48.72 -17.6,57.32 -46.93,103.18 -93.86,143.3 -5.87,5.74 -11.74,17.2 -11.74,28.66 -5.86,-2.86 -8.8,-5.73 -8.8,-5.73z"/>
      <path class="fil8 str1" d="M9308.21 15030.09c-58.66,-20.06 -87.99,-77.38 -152.53,-88.84 -52.79,-11.47 -99.73,0 -152.52,-8.6 -17.6,-5.73 -41.07,-11.46 -55.74,-25.79 49.87,42.99 76.27,106.04 129.07,146.16 35.2,25.8 79.19,31.53 120.26,25.8 32.27,-5.74 61.6,-17.2 88,-37.26 8.8,-5.73 17.6,-8.6 29.33,-5.73 0,-2.87 -2.93,-5.74 -5.87,-5.74z"/>
      <path class="fil8 str1" d="M9451.94 15224.98c-11.73,2.87 -26.4,-5.73 -35.2,-8.6 -46.93,-20.06 -85.06,-54.45 -137.86,-60.18 -55.73,-8.6 -111.46,5.73 -167.19,-5.73 2.93,0 11.73,-2.87 14.66,0 76.27,74.51 190.66,174.82 302.13,91.71 5.86,-5.73 14.66,-11.47 23.46,-8.6 0,-2.87 0,-5.73 0,-8.6z"/>
      <path class="fil8 str1" d="M9498.87 15207.79c14.67,-34.4 -14.66,-65.92 -32.26,-94.58 -17.6,-25.8 -35.2,-51.59 -29.33,-83.12 2.93,-11.46 8.8,-22.92 14.66,-34.39 14.67,-17.19 26.4,-37.26 44,-51.59 23.47,-25.79 23.47,-65.91 46.93,-94.57 -14.66,77.38 32.27,151.89 20.54,229.28 -8.8,40.12 -29.34,74.51 -58.67,108.9 0,2.87 -11.73,11.47 -5.87,20.07z"/>
      <path class="fil8 str1" d="M9598.6 15382.61c-46.93,-2.86 -73.33,-51.59 -117.33,-65.92 -82.13,-22.92 -167.19,11.47 -252.25,-2.86 11.73,-2.87 23.46,8.6 32.26,11.46 58.67,31.53 105.6,71.65 167.2,94.58 49.86,22.93 120.26,20.06 161.32,-25.79 8.8,-11.47 17.6,-2.87 26.4,-5.74l-17.6 -5.73z"/>
      <path class="fil6 str1" d="M9598.6 15382.61c-46.93,-2.86 -73.33,-51.59 -117.33,-65.92 -82.13,-22.92 -167.19,11.47 -252.25,-2.86 11.73,-2.87 23.46,8.6 32.26,11.46 58.67,31.53 105.6,71.65 167.2,94.58 49.86,22.93 120.26,20.06 161.32,-25.79 8.8,-11.47 17.6,-2.87 26.4,-5.74"/>
      <path class="fil8 str1" d="M9789.27 15523.05c-17.6,2.86 -32.27,0 -46.94,-5.74 -35.2,-17.19 -61.59,-37.25 -102.66,-42.99 -44,-5.73 -82.13,5.74 -123.2,20.07 -23.46,8.59 -52.79,11.46 -79.19,8.59 41.06,2.87 64.53,37.26 96.79,57.32 14.67,8.6 32.27,11.47 49.87,14.33 55.73,8.6 108.53,-8.59 158.39,-28.66 11.74,-5.73 23.47,-5.73 35.2,-8.59 0,-2.87 0,-5.74 0,-8.6 5.87,0 8.8,-2.87 11.74,-5.73z"/>
      <path class="fil8 str1" d="M9616.2 15328.16c-8.8,-14.33 -20.53,-25.8 -29.33,-40.13 -20.53,-31.52 -11.73,-65.91 -2.93,-97.44 8.8,-40.12 32.26,-74.52 44,-117.51 2.93,-11.46 8.8,-25.79 8.8,-37.25 -5.87,11.46 -8.8,25.79 -5.87,37.25 20.53,57.32 38.13,111.78 29.33,169.1 -5.86,34.39 -29.33,57.32 -44,85.98z"/>
      <path class="fil8 str1" d="M9798.06 15471.46c-32.26,-60.19 -79.19,-117.51 -58.66,-192.02 14.67,-51.59 38.13,-97.45 32.27,-149.04 0,20.07 0,45.86 11.73,60.19 46.93,71.65 105.6,163.36 32.26,237.88 -8.8,11.46 -8.8,28.66 -5.86,42.99 -5.87,0 -8.8,2.86 -11.74,0z"/>
      <line class="fil6 str1" x1="9801" y1="15445.66" x2="9771.67" y2= "15216.38" />
      <path class="fil6 str1" d="M9745.27 15528.78c0,0 -178.93,5.73 -220,-14.33"/>
      <path class="fil6 str1" d="M9589.8 15394.08c0,0 -217.06,-34.4 -278.65,-57.32"/>
      <path class="fil6 str1" d="M9622.07 15305.23c0,0 -14.67,-88.85 5.87,-169.09"/>
      <path class="fil6 str1" d="M9510.61 15161.93c0,0 -26.4,-106.04 -8.8,-140.43 14.66,-34.4 35.2,-128.97 35.2,-128.97"/>
      <path class="fil6 str1" d="M9428.48 15242.18c0,0 -222.93,-40.13 -269.86,-74.52"/>
      <path class="fil6 str1" d="M9275.95 15027.23c0,0 -202.4,-20.06 -278.66,-83.12"/>
      <path class="fil6 str1" d="M9322.88 14961.31c0,0 64.53,-163.36 49.86,-266.54"/>
      <path class="fil6 str1" d="M9226.08 14734.9c0,0 49.87,-106.05 44,-140.44 -2.93,-34.39 26.4,-140.43 26.4,-140.43"/>
      <path class="fil6 str1" d="M9185.02 14818.01c0,0 -137.87,-48.72 -178.93,-68.78 -41.07,-20.07 -123.2,-68.79 -123.2,-68.79"/>
      <line class="fil6 str1" x1="9067.69" y1="14574.4" x2="8921.03" y2= "14474.09" />
      <path class="fil6 str1" d="M9102.89 14431.1c0,0 82.13,-174.83 70.39,-229.28"/>
      <path class="fil6 str1" d="M8991.42 14345.12c0,0 -164.26,-74.52 -199.46,-117.51"/>
      <path class="fil6 str1" d="M9041.29 14236.21c0,0 76.26,-154.76 76.26,-223.55"/>
      <path class="fil6 str1" d="M8923.96 14155.96c0,0 -149.6,-100.31 -173.06,-217.81"/>
      <path class="fil6 str1" d="M8859.43 13791.98c0,0 96.79,174.83 82.13,246.48"/>
      <path class="fil6 str1" d="M8991.42 14026.99c0,0 96.8,-157.63 85.07,-209.21"/>
     </g>
     <g>
      <path class="fil9 str1" d="M9789.27 15488.65c23.46,0 46.93,-34.39 143.72,80.25 96.8,114.64 255.2,88.85 310.93,51.59 117.33,-80.25 55.73,-214.95 35.2,-312.39 -2.94,-20.07 -5.87,-45.86 -8.8,-91.72 0,0 -61.6,-8.59 -76.27,42.99 0,0 -8.8,-28.66 -35.2,-34.39 -23.46,-2.86 -38.13,-42.99 -38.13,-42.99 0,0 -11.73,22.93 -26.4,37.26 -14.66,14.33 -32.26,42.99 -32.26,42.99 0,0 -76.27,-31.53 -117.33,-40.12 0,0 -5.87,74.51 11.73,114.64 0,0 -29.33,-11.47 -58.66,-5.74 -29.34,5.74 -67.47,20.07 -67.47,20.07 0,0 5.87,-11.47 5.87,5.73 0,14.33 20.53,57.32 35.2,71.65 0,0 -79.2,22.93 -82.13,60.18z"/>
      <polyline class="fil6 str1" points="10026.86,15319.56 10226.32,15623.36 10255.65,15505.85 "/>
      <line class="fil6 str1" x1="10202.85" y1="15586.1" x2="10220.45" y2= "15480.06" />
      <line class="fil6 str1" x1="10161.79" y1="15528.78" x2="10179.39" y2= "15437.07" />
      <line class="fil6 str1" x1="10126.59" y1="15468.59" x2="10141.25" y2= "15394.08" />
      <line class="fil6 str1" x1="10088.46" y1="15414.14" x2="10108.99" y2= "15353.95" />
      <line class="fil6 str1" x1="10062.06" y1="15362.55" x2="10070.86" y2= "15333.89" />
     </g>
     <g>
      <path class="fil9 str1" d="M9636.74 15116.07c23.46,0 41.06,-25.79 117.33,65.92 79.19,91.71 208.26,71.65 252.26,40.13 93.86,-63.06 43.99,-171.96 29.33,-252.21 -2.94,-14.33 -5.87,-37.26 -8.8,-71.65 0,0 -49.87,-8.6 -61.6,31.52 0,0 -5.87,-20.06 -26.4,-25.79 -20.53,-2.87 -32.27,-34.39 -32.27,-34.39 0,0 -8.79,17.19 -20.53,28.66 -14.66,11.46 -26.4,34.39 -26.4,34.39 0,0 -61.6,-22.93 -93.86,-31.53 0,0 -5.87,60.19 8.8,91.72 0,0 -23.47,-8.6 -46.93,-2.87 -26.4,2.87 -55.73,14.33 -55.73,14.33 0,0 5.86,-5.73 5.86,5.73 0,11.47 14.67,45.86 29.33,57.32 0,0 -64.53,20.06 -70.39,48.72z"/>
      <polyline class="fil6 str1" points="9830.33,14981.37 9991.66,15224.98 10015.13,15130.4 "/>
      <line class="fil6 str1" x1="9974.06" y1="15196.32" x2="9988.73" y2= "15110.34" />
      <line class="fil6 str1" x1="9941.79" y1="15147.6" x2="9953.53" y2= "15075.95" />
      <line class="fil6 str1" x1="9912.46" y1="15098.88" x2="9924.19" y2= "15038.69" />
      <line class="fil6 str1" x1="9880.2" y1="15055.89" x2="9897.8" y2= "15007.17" />
      <line class="fil6 str1" x1="9859.66" y1="15015.76" x2="9865.53" y2= "14989.97" />
     </g>
     <g>
      <path class="fil9 str1" d="M9466.61 14797.95c17.6,0 38.13,-22.93 99.73,65.92 64.53,88.84 181.86,77.38 222.93,54.45 90.93,-51.59 52.79,-151.9 43.99,-223.55 -2.93,-17.19 0,-34.39 -2.93,-68.78 0,0 -44,-8.6 -58.66,25.79 0,0 -2.94,-20.06 -20.54,-22.93 -17.6,-5.73 -26.4,-34.39 -26.4,-34.39 0,0 -8.8,14.33 -20.53,22.93 -11.73,11.46 -26.4,31.53 -26.4,31.53 0,0 -52.8,-25.8 -82.13,-37.26 0,0 -8.8,54.45 0,83.11 0,0 -17.6,-8.6 -41.06,-5.73 -23.47,2.87 -49.87,11.46 -49.87,11.46 0,0 5.87,-8.59 2.93,2.87 0,11.46 11.74,42.99 23.47,54.45 0,0 -58.67,14.33 -64.53,40.13z"/>
      <polyline class="fil6 str1" points="9648.47,14689.04 9777.53,14918.32 9803.93,14835.21 "/>
      <line class="fil6 str1" x1="9762.87" y1="14892.53" x2="9780.47" y2= "14815.14" />
      <line class="fil6 str1" x1="9736.47" y1="14846.67" x2="9754.07" y2= "14780.75" />
      <line class="fil6 str1" x1="9713" y1="14800.81" x2="9727.67" y2= "14746.36" />
      <line class="fil6 str1" x1="9689.53" y1="14757.82" x2="9707.13" y2= "14717.7" />
      <line class="fil6 str1" x1="9671.94" y1="14720.57" x2="9680.74" y2= "14700.5" />
     </g>
     <g>
      <path class="fil9 str1" d="M9334.61 14497.02c17.6,2.86 38.13,-17.2 96.8,80.25 58.66,94.57 181.86,94.57 225.86,71.65 96.8,-45.86 67.46,-151.9 64.53,-226.42 0,-17.19 2.93,-37.26 2.93,-71.65 0,0 -43.99,-11.46 -61.59,22.93 0,0 -2.94,-20.06 -20.54,-28.66 -17.6,-5.73 -23.46,-37.26 -23.46,-37.26 0,0 -11.74,17.2 -23.47,25.8 -14.67,8.59 -29.33,28.66 -29.33,28.66 0,0 -52.8,-31.53 -82.13,-45.86 0,0 -14.67,57.32 -5.87,88.85 0,0 -20.53,-11.47 -44,-11.47 -23.46,0 -52.8,5.73 -52.8,5.73 0,0 5.87,-5.73 2.94,5.74 0,11.46 8.8,45.85 20.53,57.32 0,0 -64.53,8.59 -70.4,34.39z"/>
      <polyline class="fil6 str1" points="9534.07,14402.44 9642.6,14651.78 9680.74,14565.8 "/>
      <line class="fil6 str1" x1="9630.87" y1="14620.26" x2="9657.27" y2= "14542.87" />
      <line class="fil6 str1" x1="9607.4" y1="14571.53" x2="9633.8" y2= "14505.62" />
      <line class="fil6 str1" x1="9589.8" y1="14522.81" x2="9610.34" y2= "14468.36" />
      <line class="fil6 str1" x1="9566.34" y1="14476.96" x2="9589.8" y2= "14433.97" />
      <line class="fil6 str1" x1="9554.61" y1="14436.83" x2="9563.41" y2= "14416.77" />
     </g>
     <g>
      <path class="fil9 str1" d="M9185.02 14196.09c20.53,2.86 41.06,-20.06 99.73,77.38 58.66,97.44 178.93,94.58 225.86,71.65 96.79,-45.86 67.46,-151.9 64.53,-226.41 -2.93,-17.2 0,-37.26 2.93,-71.65 0,0 -44,-11.47 -61.6,22.92 0,0 -2.93,-20.06 -20.53,-28.66 -20.53,-5.73 -23.47,-37.25 -23.47,-37.25 0,0 -14.66,17.19 -26.39,25.79 -14.67,8.6 -29.34,28.66 -29.34,28.66 0,0 -52.8,-31.53 -82.13,-42.99 0,0 -14.66,54.45 -5.86,85.98 0,0 -20.54,-11.46 -41.07,-11.46 -23.47,0 -55.73,8.59 -55.73,8.59 0,0 8.8,-8.59 5.87,2.87 -2.94,11.46 8.8,45.86 17.59,57.32 0,0 -61.59,11.46 -70.39,37.26z"/>
      <polyline class="fil6 str1" points="9384.48,14098.64 9495.94,14347.99 9534.07,14262.01 "/>
      <line class="fil6 str1" x1="9484.21" y1="14316.46" x2="9510.61" y2= "14239.08" />
      <line class="fil6 str1" x1="9460.74" y1="14267.74" x2="9484.21" y2= "14201.82" />
      <line class="fil6 str1" x1="9440.21" y1="14219.02" x2="9460.74" y2= "14164.56" />
      <line class="fil6 str1" x1="9419.68" y1="14173.16" x2="9440.21" y2= "14133.04" />
      <line class="fil6 str1" x1="9405.01" y1="14133.04" x2="9413.81" y2= "14112.97" />
     </g>
    </g>
    <g>
     <path class="fil5 str0" d="M12118.26 14356.58c-70.4,28.66 -149.59,-5.73 -175.99,-71.65 -26.4,-68.78 5.86,-146.16 76.26,-171.96l14.67 40.13c-46.94,17.19 -70.4,68.78 -49.87,114.64 17.6,45.85 70.4,68.78 117.33,51.59 46.93,-20.07 70.4,-71.65 52.8,-117.51 -20.53,-45.86 -73.33,-68.78 -120.26,-48.72l-14.67 -40.13c67.47,-25.79 146.66,5.74 173.06,74.52 29.33,65.92 -5.86,143.3 -73.33,169.09z"/>
     <path class="fil5 str0" d="M12068.4 13975.41c17.6,71.65 -26.4,143.3 -99.73,157.63 -70.4,17.19 -143.73,-25.8 -161.33,-97.45l41.06 -8.6c11.74,48.73 61.6,77.39 111.47,65.92 49.86,-11.46 79.19,-60.18 67.46,-106.04 -11.73,-48.72 -61.6,-80.25 -108.53,-68.78 -49.86,11.46 -82.13,60.18 -70.4,108.9l-41.06 8.6c-17.6,-68.78 29.33,-140.43 99.73,-157.63 73.33,-17.19 146.66,28.66 161.33,97.45z"/>
     <path class="fil5 str0" d="M11613.74 14158.83l44 45.86 114.4 -100.31 -79.2 -85.98 -111.46 85.98 32.26 54.45 -29.33 22.93c0,0 -55.73,-51.59 -58.66,-65.92 -2.94,-11.46 2.93,-20.06 11.73,-28.66 8.8,-11.46 131.99,-117.51 143.73,-123.24 11.73,-5.73 32.26,-2.86 41.06,-2.86 11.74,2.86 82.13,111.77 90.93,114.64 17.6,14.33 20.54,34.39 0,51.58 -14.66,14.33 -137.86,131.84 -146.66,131.84 -11.73,-2.87 -23.46,-2.87 -32.26,-8.6 -5.87,-5.73 -49.87,-68.78 -49.87,-68.78l29.33 -22.93z"/>
     <path class="fil5 str0" d="M12006.8 14565.8l58.66 22.93 46.93 -117.51 -108.53 -45.85 -49.86 106.04 52.8 34.39 -14.67 34.39c0,0 -73.33,-25.79 -82.13,-34.39 -8.8,-11.46 -8.8,-20.06 -5.87,-34.39 5.87,-14.33 58.67,-140.43 67.47,-149.03 5.87,-8.6 26.4,-17.2 35.2,-20.06 8.8,-2.87 123.19,65.91 131.99,65.91 20.54,5.74 32.27,22.93 23.47,45.86 -8.8,20.06 -55.73,157.63 -64.53,160.5 -11.73,2.86 -23.47,8.59 -32.27,5.73 -8.8,-2.87 -73.33,-40.13 -73.33,-40.13l14.67 -34.39z"/>
     <path class="fil5 str0" d="M11267.62 14545.74l49.87 34.39 76.26 -131.83 -99.73 -65.92 -73.33 120.37 46.93 42.99 -23.47 31.53c0,0 -67.46,-37.26 -73.33,-48.73 -5.86,-11.46 -5.86,-20.06 2.94,-34.39 5.86,-11.46 87.99,-151.9 96.79,-160.49 8.8,-8.6 29.34,-11.47 38.14,-11.47 11.73,-2.86 108.53,85.98 117.33,88.85 20.53,8.6 26.39,25.79 14.66,48.72 -11.73,17.2 -88,169.09 -99.73,169.09 -8.8,2.87 -23.46,5.74 -29.33,0 -8.8,-2.86 -61.6,-54.45 -61.6,-54.45l17.6 -28.66z"/>
     <path class="fil5 str0" d="M11572.68 14184.62c52.8,51.59 55.73,134.71 2.93,186.29 -52.8,51.59 -137.86,51.59 -190.66,0l29.33 -28.66c38.13,34.4 93.87,34.4 132,0 35.2,-37.25 35.2,-91.71 -2.93,-128.97 -35.2,-34.39 -93.87,-34.39 -129.07,2.87 -35.2,34.39 -35.2,91.71 0,126.1l-29.33 28.66c-52.8,-51.58 -52.8,-134.7 0,-186.29 49.87,-51.58 134.93,-51.58 187.73,0z"/>
     <path class="fil5 str0" d="M12021.46 14628.85c52.8,48.73 52.8,131.84 2.94,183.43 -52.8,51.59 -137.87,54.45 -190.66,2.86l29.33 -31.52c35.2,37.26 93.86,34.39 129.06,0 35.2,-34.39 35.2,-91.71 0,-126.11 -35.2,-34.39 -93.86,-34.39 -129.06,0 -35.2,34.4 -35.2,91.72 0,126.11l-29.33 31.52c-52.8,-51.58 -52.8,-134.7 -2.94,-186.29 52.8,-51.58 137.87,-51.58 190.66,0z"/>
     <path class="fil5 str0" d="M11757.47 14998.57l52.8 31.52 67.46 -108.9 -99.73 -63.06 -67.46 97.45 46.93 42.99 -20.53 28.66c0,0 -70.4,-34.39 -76.27,-45.86 -5.86,-11.46 -2.93,-20.06 2.94,-31.52 5.86,-14.33 76.26,-128.97 88,-137.57 8.8,-8.6 29.33,-14.33 38.13,-17.2 8.8,0 108.53,83.12 117.33,88.85 23.46,5.73 29.33,25.79 17.6,45.85 -11.74,17.2 -79.2,149.04 -90.93,149.04 -8.8,2.86 -20.54,5.73 -29.34,2.86 -8.8,-5.73 -67.46,-54.45 -67.46,-54.45l20.53 -28.66z"/>
     <path class="fil5 str0" d="M11267.62 14608.79c52.8,48.72 55.73,131.84 2.93,183.43 -52.79,51.58 -137.86,54.45 -190.66,2.86l29.33 -31.52c35.2,37.25 93.87,37.25 129.07,0 38.13,-34.4 35.2,-91.72 0,-126.11 -35.2,-34.39 -93.87,-34.39 -129.07,0 -35.19,34.39 -35.19,91.71 0,126.11l-29.33 31.52c-52.8,-51.59 -52.8,-134.7 0,-186.29 49.87,-51.59 134.93,-51.59 187.73,0z"/>
     <path class="fil5 str0" d="M10977.23 14992.84l52.8 34.39 73.33 -131.84 -99.73 -65.92 -73.33 120.38 46.93 42.99 -23.47 31.52c0,0 -67.46,-37.26 -73.33,-48.72 -5.86,-11.46 -2.93,-20.06 2.94,-31.53 5.86,-14.33 87.99,-154.76 96.79,-160.49 8.8,-8.6 29.33,-14.33 38.13,-14.33 11.74,-2.87 108.53,85.98 117.33,88.84 20.54,8.6 26.4,28.66 14.67,48.73 -11.73,17.19 -88,169.09 -99.73,171.96 -8.8,0 -20.53,2.86 -29.33,0 -8.8,-5.74 -61.6,-57.32 -61.6,-57.32l17.6 -28.66z"/>
     <path class="fil5 str0" d="M11745.74 15044.42c52.8,48.73 52.8,131.84 0,183.43 -52.8,51.59 -137.86,54.45 -190.66,2.86l29.33 -31.52c38.13,37.26 96.8,34.39 132,0 35.2,-34.39 35.2,-91.71 -2.94,-126.11 -35.2,-34.39 -93.86,-34.39 -129.06,0 -35.2,34.4 -35.2,91.72 0,126.11l-29.33 31.52c-52.8,-51.58 -52.8,-134.7 0,-186.29 52.8,-51.58 137.86,-51.58 190.66,0z"/>
     <path class="fil5 str0" d="M10936.16 15024.36c67.47,22.93 105.6,100.31 79.2,166.23 -26.4,68.78 -102.66,103.18 -173.06,80.25l14.67 -40.13c46.93,17.2 99.73,-5.73 117.33,-54.45 17.6,-45.86 -5.87,-97.44 -52.8,-114.64 -49.87,-17.2 -102.67,8.6 -117.33,54.45 -17.6,45.86 5.86,97.45 52.8,114.64l-14.67 40.13c-70.4,-25.8 -105.6,-100.31 -79.2,-169.1 26.4,-68.78 102.67,-103.17 173.06,-77.38z"/>
     <path class="fil5 str0" d="M10736.7 15525.91c20.54,-68.78 96.8,-108.91 167.2,-88.84 70.4,22.92 111.46,97.44 90.93,166.22l-41.07 -14.33c14.67,-45.85 -11.73,-97.44 -61.6,-111.77 -49.86,-14.33 -99.73,14.33 -114.39,60.19 -14.67,48.72 11.73,97.44 61.6,111.77 46.93,14.33 99.73,-11.46 114.39,-60.19l41.07 14.33c-23.47,68.79 -99.73,108.91 -170.13,85.98 -70.4,-20.06 -111.46,-94.57 -88,-163.36z"/>
     <path class="fil5 str0" d="M11261.75 15580.37c-55.73,-48.73 -58.66,-131.84 -8.8,-186.29 49.87,-54.46 134.93,-57.32 190.66,-8.6l-29.33 31.52c-38.13,-34.39 -96.79,-31.52 -129.06,5.74 -35.2,34.39 -32.27,91.71 5.87,126.1 35.2,34.39 93.86,31.53 129.06,-5.73 32.26,-37.26 32.26,-91.71 -5.87,-126.11l29.33 -31.52c52.8,48.72 58.67,131.83 5.87,186.29 -49.86,54.45 -134.93,57.32 -187.73,8.6z"/>
     <path class="fil5 str0" d="M11461.21 15368.28l49.87 37.26 79.2 -100.31 -90.93 -74.52 -79.2 88.85 41.06 48.72 -26.39 25.8c0,0 -61.6,-42.99 -67.47,-54.46 -5.87,-11.46 -2.93,-20.06 5.87,-31.52 8.8,-14.33 93.86,-120.38 105.59,-126.11 8.8,-8.6 29.34,-11.46 41.07,-11.46 8.8,0 96.8,97.44 105.6,100.31 20.53,11.46 26.4,31.52 8.8,51.59 -11.74,14.33 -96.8,134.7 -105.6,134.7 -11.73,0 -23.47,2.86 -32.27,-2.87 -5.86,-5.73 -61.59,-60.18 -61.59,-60.18l26.39 -25.8z"/>
     <path class="fil5 str0" d="M11044.69 15606.16l14.67 60.19 126.13 -31.53 -26.4 -114.64 -117.33 22.93 2.93 63.05 -35.2 8.6c0,0 -23.46,-71.65 -20.53,-85.98 2.94,-11.47 11.73,-17.2 23.47,-22.93 14.66,-2.87 149.59,-37.26 164.26,-37.26 11.73,2.87 29.33,11.47 38.13,17.2 5.87,5.73 17.6,134.7 20.53,143.3 8.8,20.06 0,40.12 -23.46,45.85 -20.53,5.74 -161.33,48.73 -170.13,42.99 -8.8,-5.73 -20.53,-11.46 -23.47,-20.06 -2.93,-8.6 -8.8,-83.11 -8.8,-83.11l35.2 -8.6z"/>
     <path class="fil5 str0" d="M10862.83 15425.6l61.6 -2.86 -5.87 -126.11 -120.26 2.87 0 117.5 64.53 8.6 0 37.26c0,0 -76.26,8.6 -87.99,2.87 -11.74,-5.74 -14.67,-14.33 -17.6,-28.66 -2.94,-14.33 -8.8,-149.04 -5.87,-160.5 2.93,-14.33 14.67,-28.66 23.47,-34.39 8.79,-5.73 137.86,8.6 146.66,5.73 23.46,-5.73 41.06,8.6 41.06,31.53 2.94,20.06 20.54,166.22 11.74,171.96 -8.8,5.73 -14.67,17.19 -26.4,17.19 -8.8,2.87 -85.07,-5.73 -85.07,-5.73l0 -37.26z"/>
     <polygon class="fil5 str0" points="11854.27,14009.8 11713.47,14052.79 11731.07,14078.58 11866,14038.46 "/>
     <polygon class="fil5 str0" points="11613.74,14144.5 11531.61,14213.28 11549.21,14233.35 11634.28,14161.7 "/>
     <polygon class="fil5 str0" points="11411.35,14322.19 11323.35,14408.17 11352.68,14431.1 11434.82,14347.99 "/>
     <polygon class="fil5 str0" points="11261.75,14534.28 11200.16,14620.26 11238.29,14637.45 11282.29,14551.47 "/>
     <polygon class="fil5 str0" points="11109.22,14754.96 11027.09,14858.13 11062.29,14878.2 11141.49,14775.02 "/>
     <polygon class="fil5 str0" points="11989.2,14075.72 12027.33,14164.56 12050.8,14155.96 12000.93,14058.52 "/>
     <polygon class="fil5 str0" points="12053.73,14319.33 12047.86,14448.3 12068.4,14462.63 12086,14319.33 "/>
     <polygon class="fil5 str0" points="12006.8,14557.2 11956.93,14643.18 11983.33,14660.38 12027.33,14568.67 "/>
     <polygon class="fil5 str0" points="11877.73,14792.22 11813.2,14886.79 11839.6,14906.86 11895.33,14800.81 "/>
     <polygon class="fil5 str0" points="11754.54,14984.24 11778,15001.43 11719.34,15084.55 11698.81,15070.22 "/>
     <polygon class="fil5 str0" points="11590.28,15190.59 11525.75,15262.24 11552.14,15288.03 11607.88,15207.79 "/>
     <polygon class="fil5 str0" points="10974.3,14981.37 10921.5,15073.08 10944.96,15090.28 11000.69,15001.43 "/>
     <polygon class="fil5 str0" points="11458.28,15353.95 11399.62,15414.14 11417.22,15434.2 11475.88,15371.15 "/>
     <path class="fil5 str0" d="M11273.49 15508.72c0,0 -99.73,51.58 -111.47,51.58l11.74 28.66c0,0 114.39,-34.39 114.39,-48.72l-14.66 -31.52z"/>
     <path class="fil5 str0" d="M11056.43 15620.49c0,0 -123.2,-5.73 -117.33,-17.2 2.93,-8.59 8.8,-31.52 8.8,-31.52 0,0 96.79,20.06 105.59,22.93l2.94 25.79z"/>
     <polygon class="fil5 str0" points="10851.1,15480.06 10851.1,15417 10883.37,15422.74 10877.5,15485.79 "/>
     <polygon class="fil5 str0" points="10833.5,15308.1 10856.97,15224.98 10880.43,15224.98 10862.83,15305.23 "/>
    </g>
    <g>
     <path class="fil1 str0" d="M9346.35 13330.56c131.99,0 149.59,-88.85 158.39,-103.18 11.73,-17.19 0,-229.28 5.87,-269.4 5.86,-48.72 55.73,-74.52 76.26,-108.91 20.53,-37.26 14.67,-166.23 14.67,-166.23 52.8,34.39 152.53,-8.6 152.53,-8.6 -64.54,-31.52 -105.6,-74.51 -105.6,-74.51 158.39,-25.8 319.72,-74.52 372.52,-223.55 49.87,-149.03 -82.13,-323.86 -96.8,-355.38 -17.6,-28.66 -26.39,-77.39 -26.39,-77.39 0,0 -26.4,65.92 -11.74,97.45 20.53,45.85 129.07,240.74 38.13,363.98 -93.86,126.1 -454.65,108.91 -577.84,108.91 -120.27,0 -481.06,17.19 -574.92,-108.91 -90.93,-123.24 14.67,-318.13 35.2,-363.98 14.66,-31.53 -8.8,-97.45 -8.8,-97.45 0,0 -11.73,48.73 -26.4,77.39 -14.67,31.52 -146.66,206.35 -96.8,355.38 52.8,149.03 214.13,197.75 372.52,223.55 0,0 -41.06,42.99 -105.59,74.51 0,0 99.73,42.99 152.53,8.6 0,0 -5.87,128.97 14.66,166.23 20.54,34.39 70.4,60.19 76.27,108.91 5.86,40.12 -5.87,252.21 5.86,269.4 8.8,14.33 20.54,103.18 155.47,103.18z"/>
     <path class="fil0 str0" d="M9126.35 12791.75c52.8,5.73 58.67,37.26 61.6,68.78 -20.53,0 -38.13,2.87 -49.86,-11.46 -11.74,-17.2 -2.94,-40.12 -11.74,-57.32z"/>
     <path class="fil0 str0" d="M9569.27 12791.75c-52.8,5.73 -58.66,37.26 -61.6,68.78 20.54,0 38.14,2.87 49.87,-11.46 11.73,-17.2 0,-40.12 11.73,-57.32z"/>
     <path class="fil0 str0" d="M10020.99 12376.18c-52.8,149.03 -214.13,197.75 -372.52,223.55 0,0 41.06,42.99 105.6,74.51 0,0 -99.73,42.99 -152.53,8.6 0,0 2.93,74.52 -2.94,126.11 -32.26,-42.99 -105.59,2.86 -120.26,34.39 -14.66,28.66 -5.87,343.92 -8.8,369.71 -2.93,28.66 -29.33,31.53 -29.33,31.53 14.67,11.46 55.73,2.86 55.73,2.86 -17.6,31.53 -49.86,83.12 -149.59,83.12 -14.67,0 -23.47,0 -35.2,-2.87 -41.07,-14.33 -55.74,-40.12 -58.67,-88.84 -2.93,-80.25 23.47,-42.99 17.6,-91.72 -2.93,-51.58 5.87,-278 0,-318.12 -2.93,-40.13 -76.26,-80.25 -76.26,-106.04 0,-22.93 38.13,-97.45 38.13,-97.45 0,0 -58.67,0 -73.33,-20.06 -14.67,-20.06 0,-25.79 -5.87,-45.86 -2.93,-20.06 -49.86,-20.06 -49.86,-20.06 -152.53,-25.79 -258.13,-45.85 -334.39,-117.5 -79.2,-68.79 -41.07,-209.22 -20.54,-272.27 8.8,-25.8 58.67,-108.91 58.67,-108.91 -20.53,45.85 -126.13,240.74 -35.2,363.98 93.86,126.1 454.65,108.91 574.92,108.91 67.46,0 199.46,5.73 322.65,-8.6 0,0 105.6,-2.87 214.13,-37.26 90.93,-31.52 137.86,-91.71 137.86,-91.71z"/>
    </g>
    <g>
     <g>
      <path class="fil9 str0" d="M10739.64 12473.62c2.93,8.6 -11.74,8.6 -8.8,17.2 8.8,68.78 -2.94,131.84 0,194.89 0,-31.53 5.86,-71.65 23.46,-108.91l-14.66 -103.18z"/>
      <path class="fil6 str0" d="M10739.64 12473.62c2.93,8.6 -11.74,8.6 -8.8,17.2 8.8,68.78 -2.94,131.84 0,194.89 0,-31.53 5.86,-71.65 23.46,-108.91"/>
      <path class="fil9 str0" d="M10836.43 12556.74c-5.86,2.86 -5.86,11.46 -2.93,14.33 11.73,14.33 -5.87,8.6 0,25.79 8.8,11.47 2.93,31.53 -5.87,48.72 -14.66,25.8 -11.73,22.93 2.94,54.46 -8.8,-20.06 -11.74,-25.8 -5.87,-63.05 0,-2.87 -2.93,-20.07 2.93,-17.2 -2.93,-25.79 8.8,-37.26 -14.66,-57.32l23.46 -5.73z"/>
      <path class="fil6 str0" d="M10836.43 12556.74c-5.86,2.86 -5.86,11.46 -2.93,14.33 11.73,14.33 -5.87,8.6 0,25.79 8.8,11.47 2.93,31.53 -5.87,48.72 -14.66,25.8 -11.73,22.93 2.94,54.46 -8.8,-20.06 -11.74,-25.8 -5.87,-63.05 0,-2.87 -2.93,-20.07 2.93,-17.2 -2.93,-25.79 8.8,-37.26 -14.66,-57.32"/>
      <path class="fil9 str0" d="M11041.76 12571.07c-2.93,14.33 2.93,28.66 8.8,40.12 2.93,22.93 5.87,28.66 8.8,45.86 0,22.93 0,5.73 2.93,42.99 2.94,-51.59 11.74,-65.92 2.94,-123.24l-23.47 -5.73z"/>
      <path class="fil6 str0" d="M11041.76 12571.07c-2.93,14.33 2.93,28.66 8.8,40.12 2.93,22.93 5.87,28.66 8.8,45.86 0,22.93 0,5.73 2.93,42.99 2.94,-51.59 11.74,-65.92 2.94,-123.24"/>
      <path class="fil9 str0" d="M11188.42 12602.59c-2.93,20.07 11.74,34.4 23.47,48.73 11.73,17.19 2.93,37.25 8.8,54.45 8.8,22.93 -2.93,-2.87 -5.87,22.93 20.53,-45.86 11.73,-37.26 11.73,-83.12 0,-2.86 -8.79,-8.59 -11.73,-14.33 -2.93,-17.19 0,-37.25 0,-54.45l-26.4 25.79z"/>
      <path class="fil6 str0" d="M11188.42 12602.59c-2.93,20.07 11.74,34.4 23.47,48.73 11.73,17.19 2.93,37.25 8.8,54.45 8.8,22.93 -2.93,-2.87 -5.87,22.93 20.53,-45.86 11.73,-37.26 11.73,-83.12 0,-2.86 -8.79,-8.59 -11.73,-14.33 -2.93,-17.19 0,-37.25 0,-54.45"/>
      <path class="fil9 str0" d="M11610.81 12556.74c-2.93,42.99 -5.87,88.84 11.73,128.97 -14.66,-37.26 2.94,-71.65 2.94,-108.91l-14.67 -20.06z"/>
      <path class="fil6 str0" d="M11610.81 12556.74c-2.93,42.99 -5.87,88.84 11.73,128.97 -14.66,-37.26 2.94,-71.65 2.94,-108.91"/>
      <path class="fil9 str0" d="M11763.34 12576.8c26.4,40.12 8.8,94.58 23.46,131.84 0,-37.26 -8.8,-80.25 2.94,-123.24l-26.4 -8.6z"/>
      <path class="fil6 str0" d="M11763.34 12576.8c26.4,40.12 8.8,94.58 23.46,131.84 0,-37.26 -8.8,-80.25 2.94,-123.24"/>
      <path class="fil9 str0" d="M11962.8 12585.4c11.73,11.46 11.73,25.79 14.67,37.26 0,17.19 0,37.25 2.93,42.99 11.73,11.46 -2.93,22.92 8.8,34.39 -5.87,-11.47 0,-37.26 2.93,-51.59 0,-20.06 -17.6,-34.39 0,-51.59l-29.33 -11.46z"/>
      <path class="fil6 str0" d="M11962.8 12585.4c11.73,11.46 11.73,25.79 14.67,37.26 0,17.19 0,37.25 2.93,42.99 11.73,11.46 -2.93,22.92 8.8,34.39 -5.87,-11.47 0,-37.26 2.93,-51.59 0,-20.06 -17.6,-34.39 0,-51.59"/>
      <path class="fil9 str0" d="M12033.2 12585.4c0,14.33 2.93,22.93 8.8,31.52 5.86,17.2 2.93,40.13 2.93,60.19 17.6,-28.66 11.73,-63.05 8.8,-94.58l-20.53 2.87z"/>
      <path class="fil6 str0" d="M12033.2 12585.4c0,14.33 2.93,22.93 8.8,31.52 5.86,17.2 2.93,40.13 2.93,60.19 17.6,-28.66 11.73,-63.05 8.8,-94.58"/>
      <path class="fil9 str0" d="M12086 12582.53c0,14.33 14.66,28.66 14.66,40.13 5.87,48.72 -8.8,48.72 11.73,94.57 -5.86,2.87 -8.8,0 -8.8,-2.86 -2.93,-14.33 2.94,-28.66 5.87,-40.13 14.67,-48.72 -5.87,-48.72 5.87,-97.44l-29.33 5.73z"/>
      <path class="fil6 str0" d="M12086 12582.53c0,14.33 14.66,28.66 14.66,40.13 5.87,48.72 -8.8,48.72 11.73,94.57 -5.86,2.87 -8.8,0 -8.8,-2.86 -2.93,-14.33 2.94,-28.66 5.87,-40.13 14.67,-48.72 -5.87,-48.72 5.87,-97.44"/>
      <path class="fil9 str0" d="M12165.19 12568.2c2.94,17.2 8.8,37.26 14.67,48.72 5.87,20.07 -11.73,45.86 0,65.92 2.93,-34.39 8.8,-80.25 5.87,-120.37 0,0 -2.94,2.87 -2.94,5.73l-17.6 0z"/>
      <path class="fil6 str0" d="M12165.19 12568.2c2.94,17.2 8.8,37.26 14.67,48.72 5.87,20.07 -11.73,45.86 0,65.92 2.93,-34.39 8.8,-80.25 5.87,-120.37 0,0 -2.94,2.87 -2.94,5.73"/>
      <path class="fil9 str0" d="M11880.67 12591.13c17.6,14.33 -8.8,48.72 2.93,108.91 0,11.46 8.8,22.93 23.47,25.79 -2.94,-8.6 -14.67,-14.33 -14.67,-20.06 -2.93,-60.19 5.87,-57.32 8.8,-120.37l-20.53 5.73z"/>
      <path class="fil6 str0" d="M11880.67 12591.13c17.6,14.33 -8.8,48.72 2.93,108.91 0,11.46 8.8,22.93 23.47,25.79 -2.94,-8.6 -14.67,-14.33 -14.67,-20.06 -2.93,-60.19 5.87,-57.32 8.8,-120.37"/>
     </g>
     <path class="fil9 str0" d="M11552.14 12565.34c0,0 5.87,263.67 46.94,292.33 41.06,31.52 187.72,108.91 346.12,128.97 0,0 -82.13,31.52 -137.86,25.79 -55.73,-5.73 -184.8,-40.12 -220,-34.39 -35.2,5.73 -117.33,8.6 -155.46,8.6 -41.06,0 -158.39,11.46 -158.39,11.46l0 -51.59c0,0 76.26,-63.05 79.19,-83.11 5.87,-20.06 11.74,-235.01 -2.93,-275.14l202.39 -22.92z"/>
     <path class="fil9 str0" d="M10719.1 12462.16c-5.86,-25.79 23.47,0 32.27,-22.93 2.93,-8.6 2.93,-17.19 14.67,-17.19 0,-25.8 -8.8,-54.46 8.8,-71.65 23.46,-22.93 17.59,-51.59 23.46,-77.39 2.93,-5.73 0,-14.33 8.8,-20.06 46.93,-20.06 46.93,-65.92 79.2,-100.31 5.86,-8.6 29.33,-11.46 35.2,-17.19 20.53,-20.07 35.2,-51.59 67.46,-51.59 11.73,-68.79 85.07,-149.03 158.4,-103.18 14.66,-68.78 90.93,-94.58 158.39,-88.84 14.67,0 32.27,-22.93 46.93,-28.66 26.4,-11.47 55.74,8.59 82.14,17.19 8.79,2.87 29.33,-11.46 43.99,-20.06 52.8,-22.93 88,28.66 132,28.66 32.27,2.87 64.53,2.87 96.8,8.6 11.73,0 17.6,14.33 32.26,11.46 55.73,-2.86 120.27,-2.86 152.53,51.59 35.2,-5.73 67.47,14.33 93.86,37.26 11.74,8.6 8.8,34.39 20.54,42.99 35.2,31.52 79.2,51.59 108.53,94.58 26.4,37.25 49.86,77.38 61.6,120.37 5.86,17.19 29.33,34.39 43.99,54.45 23.47,37.26 -5.86,83.12 11.74,114.64 23.46,45.86 23.46,100.31 -17.6,134.7 -32.27,25.8 -90.93,0 -134.93,11.47 -46.93,14.33 -90.93,25.79 -137.86,14.33 -41.07,-8.6 -58.67,25.79 -102.67,14.33 -20.53,-2.87 -87.99,-31.53 -105.59,-25.8 -49.87,25.8 -105.6,14.33 -164.27,-5.73 0,2.87 0,5.73 0,8.6 -11.73,-2.87 -41.06,-2.87 -49.86,0 -35.2,8.6 -17.6,51.59 -88,11.46 -20.53,-11.46 -49.86,8.6 -76.26,14.33 -38.13,5.74 -49.87,-34.39 -79.2,-14.33 -35.2,25.8 -105.6,14.33 -143.73,20.07 -8.8,0 -29.33,-37.26 -35.2,-37.26 -41.06,0 -93.86,28.66 -152.53,-14.33 -2.93,-5.73 -17.6,14.33 -32.26,17.19 -20.54,5.74 -44,2.87 -67.47,-2.86 -29.33,-8.6 -61.6,42.99 -108.53,2.86 -11.73,-11.46 -23.46,-42.99 -14.66,-60.18 0,-2.87 8.8,-25.8 11.73,-25.8 -8.8,-8.59 -11.73,-20.06 -14.67,-25.79z"/>
     <g>
      <path class="fil6 str0" d="M10939.1 12436.37c-29.34,5.73 -41.07,20.06 -35.2,45.85 -8.8,0 -17.6,2.87 -26.4,11.47 -20.53,17.19 -20.53,48.72 -5.87,68.78"/>
      <path class="fil6 str0" d="M10933.23 12298.8c11.73,-34.39 46.93,-51.59 67.46,-68.79 17.6,-17.19 8.8,-68.78 41.07,-77.38 26.4,-8.6 64.53,-25.79 85.06,0 26.4,-20.06 61.6,-5.73 82.14,-28.66 11.73,-17.19 46.93,-5.73 70.39,-17.19 17.6,-8.6 29.34,-31.53 52.8,-37.26"/>
      <path class="fil6 str0" d="M11082.83 12227.15c8.8,-2.87 20.53,-8.6 29.33,-11.47 26.4,-11.46 58.66,-11.46 79.2,0 38.13,22.93 73.33,2.87 111.46,25.8 11.73,8.6 23.47,-14.33 35.2,-22.93 14.66,-11.46 32.26,-11.46 49.86,-8.6"/>
      <path class="fil6 str0" d="M10994.83 12530.94c8.8,-40.12 55.73,-42.99 82.13,-60.18 29.33,-17.2 58.66,-17.2 96.8,-20.06 5.86,-2.87 14.66,-14.33 26.4,-17.2 20.53,-8.6 46.93,-8.6 70.39,0"/>
      <path class="fil6 str0" d="M11299.89 12562.47c-5.87,-31.53 14.66,-74.52 52.79,-68.78 -2.93,-34.4 29.34,-65.92 58.67,-60.19"/>
      <path class="fil6 str0" d="M11408.42 12379.05c29.33,-2.87 58.66,-2.87 85.06,14.33 2.93,-11.47 11.73,-8.6 20.53,-11.47 26.4,-8.6 55.73,5.73 73.33,-2.86 29.34,-17.2 55.74,-11.47 85.07,-17.2"/>
      <path class="fil6 str0" d="M12203.32 12427.77c17.6,-25.8 14.67,-71.65 -20.53,-80.25 5.87,-5.73 5.87,-14.33 2.94,-17.2 -17.6,-22.92 -44,-40.12 -76.27,-37.25"/>
      <path class="fil6 str0" d="M11493.48 12029.39c14.67,-20.06 35.2,-45.85 61.6,-45.85 0,-2.87 -2.94,-11.47 0,-14.33 26.4,-25.8 61.6,-8.6 93.86,-22.93 23.47,-8.6 52.8,0 79.2,11.46 5.87,2.87 17.6,8.6 20.53,17.2"/>
      <path class="fil6 str0" d="M11707.61 12040.86c14.66,5.73 20.53,-11.47 32.26,-11.47 32.27,0 55.73,2.87 85.07,-11.46 8.8,-5.73 20.53,-2.87 32.26,-2.87 29.33,5.74 61.6,-14.33 90.93,5.74"/>
      <path class="fil6 str0" d="M11948.13 12063.79c14.67,-2.87 32.27,0 44,8.59 29.33,28.66 76.27,22.93 108.53,51.59"/>
      <path class="fil6 str0" d="M11367.35 12135.44c32.27,-8.6 67.47,0 99.73,-5.74 26.4,-5.73 49.87,-14.33 73.33,-8.59 11.73,5.73 29.33,0 41.07,14.33"/>
      <path class="fil6 str0" d="M11678.27 12307.4c29.34,-8.6 58.67,-17.2 90.93,-14.33 2.94,0 5.87,-8.6 8.8,-8.6 35.2,-5.73 61.6,2.86 93.87,8.6"/>
      <path class="fil6 str0" d="M12121.19 12247.21c-8.8,-2.87 -17.6,-8.6 -26.4,-8.6 -26.39,0 -49.86,5.73 -76.26,5.73 -35.2,2.87 -70.4,-11.46 -105.6,-5.73 -14.66,2.87 -29.33,5.73 -41.06,8.6"/>
      <path class="fil6 str0" d="M11754.54 12118.24c-29.33,2.87 -44,28.66 -61.6,45.86 -2.93,5.73 0,14.33 0,20.06 -41.06,-8.6 -96.8,0 -123.2,40.12"/>
      <path class="fil6 str0" d="M12086 12198.49c-11.74,2.86 -17.6,-5.73 -26.4,-8.6 -20.54,-5.73 -44,5.73 -58.67,-2.87 -32.26,-17.19 -70.4,-25.79 -105.6,-17.19"/>
      <path class="fil6 str0" d="M11396.68 12304.53c41.07,-22.93 85.07,-5.73 126.13,-2.87 17.6,2.87 44,0 52.8,20.07"/>
      <path class="fil6 str0" d="M12115.33 12456.43c-11.74,0 -20.54,-5.73 -32.27,-11.47 -29.33,-17.19 -61.6,5.74 -88,-2.86 -35.19,-11.47 -76.26,-17.2 -114.39,-8.6 0,-14.33 -14.67,-20.06 -20.53,-22.93 -29.34,-11.46 -64.54,-14.33 -96.8,2.87"/>
      <path class="fil6 str0" d="M11748.67 12496.55c-26.4,-8.6 -52.8,-20.06 -82.13,-22.93 -32.26,-2.86 -41.06,34.4 -61.6,37.26 -23.46,2.87 -55.73,-8.6 -73.33,17.2 -11.73,14.33 -11.73,31.52 -11.73,48.72"/>
     </g>
    </g>
    <g>
     <path class="fil5 str0" d="M9862.6 9131.87c0,0 -366.66,189.16 -824.25,140.43 0,0 164.27,286.6 844.78,-108.9l123.2 -140.44 -143.73 108.91z"/>
     <path class="fil5 str0" d="M9710.07 9071.68c-835.98,-48.72 -976.77,378.32 -976.77,378.32 0,0 -164.26,-318.13 140.79,-495.82 307.99,-180.56 481.06,-200.62 733.31,-209.22 0,0 -507.45,48.72 -527.98,-120.37 0,0 181.86,40.12 284.52,20.06 0,0 -234.65,-80.25 -243.45,-160.5 0,0 234.66,91.72 284.52,91.72 0,0 -184.79,-128.97 -184.79,-189.16 0,0 155.46,108.91 205.32,108.91 0,0 -61.6,-160.5 -20.53,-189.16 0,0 111.46,140.44 152.53,149.03 0,0 93.86,-94.57 263.99,-128.97 205.33,-40.12 346.12,28.66 519.19,8.6 173.06,-20.06 510.38,-37.26 662.91,-298.06 0,0 32.26,131.83 -8.8,180.56 -93.87,108.9 -307.99,237.87 -307.99,237.87 0,0 155.46,11.47 296.26,-140.43 0,0 23.46,83.11 -20.54,131.84 -82.13,88.84 -234.66,117.5 -234.66,117.5 0,0 164.26,40.13 275.73,-68.78 0,0 8.8,88.84 -29.33,108.91 -111.47,60.18 -184.8,51.58 -214.13,51.58 0,0 173.06,68.79 202.39,177.7 41.07,149.03 111.47,736.56 498.65,607.59 0,0 -90.93,128.97 -214.12,68.78 -73.33,-34.39 -152.53,-68.78 -181.86,-128.97 0,0 173.06,249.34 234.66,278 61.59,31.53 102.66,40.13 140.79,20.07 0,0 -38.13,68.78 -111.46,60.18 -70.4,-8.6 -202.4,-128.97 -202.4,-128.97 0,0 70.4,137.57 152.53,189.16 70.4,42.99 202.4,28.66 202.4,28.66 0,0 -41.07,80.25 -99.73,80.25 -61.6,0 -193.6,-60.19 -193.6,-60.19 0,0 181.86,160.5 305.06,160.5 0,0 -90.93,80.24 -152.53,60.18 -61.6,-20.06 -111.46,-60.18 -111.46,-60.18 0,0 90.93,217.81 293.32,229.28 0,0 -85.06,22.92 -178.93,14.33 -90.93,-11.47 -155.46,-85.98 -155.46,-85.98 0,0 64.53,80.24 155.46,85.98l20.54 40.12 17.6 163.36c0,0 152.53,160.5 140.79,237.88 -8.8,80.25 61.6,220.68 152.53,229.28 0,0 111.46,149.03 164.26,269.4 49.87,120.37 90.93,257.94 90.93,257.94l-2830.58 0c0,0 8.8,-189.15 82.13,-229.28 0,0 0,-217.81 152.53,-306.66l70.4 -51.59c0,0 0,-97.44 102.66,-137.57 0,0 -102.66,-31.52 -123.19,-100.3 0,0 164.26,-20.07 193.59,-120.38 0,0 -152.53,0 -173.06,-128.97 0,0 164.26,11.47 222.93,-40.12 61.59,-48.72 184.79,-157.63 184.79,-157.63 0,0 -131.99,137.57 -234.66,117.51 -102.66,-20.07 -102.66,-88.85 -90.93,-128.97 0,0 49.87,60.18 99.73,40.12 52.8,-20.06 255.19,-128.97 287.46,-229.28 0,0 -120.26,143.3 -225.86,111.77 -90.93,-31.52 -111.46,-151.89 -111.46,-151.89 0,0 32.26,31.52 90.93,20.06 61.59,-8.6 307.99,-128.97 325.59,-257.94 0,0 -170.13,298.06 -293.33,160.49 -73.33,-80.24 -11.73,-120.37 -11.73,-120.37 0,0 41.06,28.66 93.86,0 49.87,-28.66 152.53,-140.43 111.47,-209.22 -35.2,-60.18 -111.47,-88.84 -234.66,-88.84 -123.2,0 -193.6,48.72 -428.26,68.78 -234.66,20.06 -222.92,-189.15 -222.92,-189.15 0,0 222.92,189.15 865.3,-128.97 0,0 41.07,-108.91 -123.19,-120.38z"/>
     <path class="fil5 str0" d="M9666.07 8707.7c111.46,8.6 208.26,-54.45 305.06,-97.44 5.86,68.78 -11.74,151.9 -73.33,171.96 -96.8,28.66 -199.47,-22.93 -272.8,-83.12 14.67,0 26.4,5.74 41.07,8.6z"/>
     <path class="fil6 str0" d="M10387.65 8679.04c64.53,-17.19 137.86,28.66 108.53,88.85 -20.54,42.99 -64.53,83.11 -117.33,91.71 14.66,5.73 32.26,-5.73 35.2,-14.33 26.4,-31.53 87.99,-65.92 111.46,-31.53 41.06,63.06 -61.6,65.92 -88,114.64 35.2,-22.92 79.2,-57.32 108.53,-34.39 61.6,54.46 -46.93,114.64 -108.53,123.24 46.93,-2.87 102.67,-45.86 126.13,-5.73 26.4,48.72 -55.73,85.98 -105.6,106.04"/>
     <path class="fil6 str0" d="M9704.2 8919.79c23.47,-2.87 38.13,28.66 44,31.52 105.6,40.13 249.33,-42.99 325.59,63.05 61.6,83.12 0,177.7 -90.93,229.28 -38.13,20.07 -102.66,37.26 -120.26,85.98 -11.74,40.13 0,91.72 -26.4,134.71 -8.8,14.33 -23.47,11.46 -38.14,11.46"/>
     <path class="fil5 str0" d="M9768.73 8719.17c-2.93,31.52 76.27,28.66 117.33,14.33 26.4,-8.6 38.13,-51.59 32.27,-83.12 -61.6,5.73 -146.66,14.33 -149.6,68.79z"/>
     <path class="fil6 str0" d="M10015.13 9550.31c0,0 73.33,-48.73 52.79,-108.91 0,0 90.93,128.97 152.53,137.57 0,0 90.93,-117.51 61.6,-157.63 0,0 58.67,108.9 132,137.56 0,0 90.93,-128.97 70.39,-169.09 0,0 82.13,151.9 132,140.43 0,0 61.6,-80.24 52.8,-120.37 -11.73,-37.26 -32.27,-97.44 -32.27,-97.44 0,0 49.87,-128.97 32.27,-160.5 0,0 99.73,88.85 243.46,100.31 0,0 55.73,83.12 152.53,128.97"/>
     <path class="fil6 str0" d="M9965.26 9748.06c0,0 8.8,106.04 70.4,140.43 0,0 143.73,-169.09 131.99,-223.54 0,0 5.87,194.88 52.8,223.54 0,0 146.66,-163.36 126.13,-229.28 0,0 5.87,146.17 88,223.55 0,0 76.26,-143.3 49.86,-243.61 0,0 61.6,194.89 132,223.55 0,0 90.93,-143.3 32.27,-257.94 0,0 38.13,203.49 134.92,189.16 0,0 20.54,-143.3 -8.79,-243.61 0,0 82.13,214.95 193.59,217.81 0,0 49.86,-117.5 0,-243.61 0,0 61.6,220.68 123.2,209.22 0,0 64.53,-74.52 35.19,-123.24"/>
     <path class="fil6 str0" d="M10789.5 9321.03c0,0 32.27,120.37 152.53,180.55 0,0 61.6,-111.77 20.53,-160.49 0,0 52.8,128.97 102.67,149.03"/>
     <path class="fil6 str0" d="M9862.6 10048.99l11.73 57.32c0,0 140.8,-17.2 161.33,-217.82 0,0 11.73,160.5 123.19,237.88 0,0 82.13,-108.91 82.13,-266.54 0,0 0,217.82 120.27,278.01 0,0 73.33,-88.85 61.6,-229.28 0,0 41.06,149.03 131.99,189.15 0,0 82.13,-180.56 61.6,-235.01 0,0 52.8,154.76 143.73,206.35 0,0 55.73,-166.23 41.06,-220.68 0,0 29.34,180.56 132,220.68 0,0 90.93,-111.77 41.07,-249.34 0,0 61.59,177.69 140.79,217.82 0,0 82.13,-88.85 52.8,-137.57"/>
     <path class="fil6 str0" d="M9578.07 10504.68c0,0 193.6,-28.66 357.86,-346.78"/>
     <path class="fil6 str0" d="M9507.67 10725.36c0,0 181.86,-51.58 305.06,-309.52"/>
     <path class="fil6 str0" d="M9935.93 10226.68c0,0 -8.8,140.44 70.4,140.44 29.33,0 152.52,-120.38 152.52,-240.75 0,0 -29.33,169.1 61.6,240.75 0,0 140.8,-60.19 140.8,-229.28 0,0 32.26,149.03 114.39,189.15 0,0 99.73,-60.18 79.2,-229.28 0,0 32.27,197.76 123.2,237.88 0,0 90.93,-88.85 82.13,-237.88 0,0 49.86,237.88 131.99,249.34 0,0 82.14,-160.49 41.07,-249.34 0,0 61.6,197.76 132,237.88 0,0 49.86,-177.69 61.59,-266.54 0,0 20.54,0 41.07,48.72"/>
     <path class="fil6 str0" d="M9821.53 10484.62l61.6 131.84c0,0 111.46,-80.25 123.2,-209.22 0,0 20.53,108.91 90.93,197.75 0,0 123.19,-140.43 131.99,-209.21 0,0 61.6,149.03 123.2,200.62 0,0 123.19,-100.31 123.19,-269.41 0,0 38.14,257.94 120.27,269.41 0,0 90.93,-40.13 82.13,-229.28 0,0 20.53,149.03 131.99,229.28 0,0 111.47,-140.44 82.13,-249.35l0 28.66c0,0 41.07,209.22 102.67,220.69 0,0 90.93,-160.5 79.2,-229.28 0,0 73.33,149.03 123.19,189.15 0,0 82.13,-71.65 70.4,-280.87 0,0 61.6,160.5 114.4,180.56"/>
     <path class="fil6 str0" d="M9396.21 10894.46c0,0 152.53,60.18 181.86,-180.56 0,0 41.07,140.43 132,189.16 0,0 205.32,-169.1 173.06,-286.6 0,0 32.26,257.94 102.66,278 0,0 152.53,-149.03 143.73,-289.47 0,0 49.87,200.62 152.53,249.34 0,0 79.2,-80.24 70.4,-257.93 0,0 41.06,237.87 123.19,246.47 0,0 120.27,-77.38 152.53,-226.41 0,0 0,189.15 90.93,246.47 0,0 111.47,-108.91 90.93,-266.53 0,0 41.07,197.75 102.67,237.87 0,0 82.13,-120.37 82.13,-237.87 0,0 49.86,217.81 111.46,246.47 0,0 123.2,-88.85 111.47,-226.41 0,0 11.73,177.69 90.93,217.81 0,0 102.66,-100.31 73.33,-229.28 0,0 -102.67,-40.12 -102.67,-100.31 0,0 82.13,140.44 234.66,140.44"/>
     <path class="fil6 str0" d="M9211.42 11143.8c0,0 234.66,-80.25 263.99,-180.56 0,0 41.06,140.44 123.19,200.62 0,0 90.93,-51.59 111.47,-260.8 0,0 61.6,240.74 131.99,269.4 0,0 143.73,-60.19 143.73,-278 0,0 41.07,217.81 132,257.94 0,0 164.26,-197.76 164.26,-298.07 0,0 -41.07,189.16 99.73,278.01 0,0 123.2,-140.44 93.86,-289.47 0,0 29.34,200.62 120.27,269.4 0,0 123.19,-108.9 123.19,-249.34 0,0 -11.73,180.56 82.13,240.75 0,0 132,-100.31 111.47,-269.41 0,0 8.8,249.34 82.13,289.47 0,0 120.26,-169.1 111.46,-280.87 0,0 8.8,209.22 111.47,280.87 0,0 102.66,-169.1 90.93,-289.47 0,0 61.59,257.94 152.52,278 0,0 102.67,-137.56 82.14,-278"/>
     <path class="fil6 str0" d="M9220.22 11181.06c0,0 32.26,169.09 114.39,249.34 0,0 193.6,-117.51 193.6,-266.54 0,0 41.06,186.29 140.79,257.94 0,0 173.06,-88.84 173.06,-249.34 0,0 32.27,217.82 123.2,257.94 0,0 173.06,-80.25 152.53,-278 0,0 41.06,229.28 143.73,289.46 0,0 140.79,-71.65 120.26,-269.4 0,0 11.73,229.28 93.86,278 0,0 120.27,-177.69 120.27,-298.06 0,0 0,217.81 90.93,278 93.86,60.19 32.26,11.46 32.26,11.46 0,0 111.47,-128.97 90.93,-289.46 0,0 32.27,269.4 102.67,278 0,0 131.99,-60.19 111.46,-286.6 0,0 29.33,246.48 70.4,286.6 0,0 114.4,-60.19 164.26,-326.72 0,0 20.53,306.66 111.46,338.18 0,0 132,-169.09 132,-318.12 0,0 -8.8,278 93.86,318.12 0,0 111.47,-60.18 90.93,-329.59 0,0 20.54,269.41 111.47,329.59 0,0 102.66,-60.18 70.4,-140.43"/>
     <path class="fil6 str0" d="M11555.08 10862.93c0,0 20.53,169.1 131.99,220.68l49.87 -71.65"/>
    </g>
    <path class="fil10" d="M7830.04 17498.37l14.28 9.62c12.33,8.26 22.92,12.5 31.9,12.66 8.94,0.26 16.49,-3.52 22.58,-11.28 7.15,-9.11 9.52,-17.51 7.06,-25.16 -2.51,-7.72 -10.31,-15.96 -23.41,-24.78l-14.3 -9.6 -38.11 48.54zm-86.49 110.09l16.68 11.22c11.66,7.84 22,11.7 30.99,11.46 8.93,-0.18 16.74,-4.42 23.3,-12.79 7.42,-9.43 9.95,-18.47 7.55,-27.05 -2.42,-8.53 -9.95,-17.11 -22.5,-25.53l-14.72 -9.89 -41.3 52.58zm-133.03 11.97l227.16 -289.14 104.44 70.2c35.29,23.69 56.77,48.53 64.49,74.41 7.72,25.9 1.4,51.84 -18.94,77.71 -12.02,15.3 -25.45,25.86 -40.34,31.61 -14.86,5.79 -32.18,7.23 -51.78,4.27 10.42,14.1 15.03,28.94 13.68,44.69 -1.33,15.73 -8.55,31.88 -21.73,48.67 -21.09,26.81 -46.15,40.88 -75.19,42.08 -29,1.2 -61.76,-10.39 -98.21,-34.89l-103.58 -69.61zm264.05 169.13l216.08 -296.31 82.93 51.73 -75.6 103.62 69.87 43.58 75.57 -103.65 82.91 51.73 -216.11 296.31 -82.91 -51.73 83.99 -115.16 -69.84 -43.58 -83.98 115.16 -82.91 -51.7zm383.05 224.22l-87.49 -44.83 187.38 -312.62 87.46 44.85 -187.35 312.6zm62.7 36.59l163.33 -323.92 39.67 17.14 58.9 198.07 71.52 -141.84 90.4 38.96 -163.33 323.95 -41.16 -17.75 -57.88 -195.99 -70.8 140.48 -90.65 -39.1zm321.04 140l163.33 -323.92 39.68 17.14 58.89 198.07 71.52 -141.84 90.41 38.99 -163.34 323.92 -41.16 -17.75 -57.87 -195.99 -70.84 140.48 -90.62 -39.1zm585.12 96.99l-58.51 85.89 -204.11 -61.35 119.41 -339.91 203.09 61.03 -15.88 95.12 -123.82 -37.21 -12.13 34.54 82.85 24.92 -31.57 89.85 -82.88 -24.9 -11.06 31.56 134.61 40.46zm12.07 107.99l93.47 -346.79 97.05 22.39 -41.57 154.17 122.8 -135.47 111.99 25.83 -133.61 137.02 42.13 210.25 -107.64 -24.81 -37.77 -204.98 -49.82 184.75 -97.03 -22.36zm484.77 -26.44l78.24 12.76 -16.68 -125.15 -61.56 112.39zm-169.13 103.83l200.2 -330.26 111.28 18.15 58.72 372.48 -104.52 -17.03 -6.23 -41.71 -134.71 -21.99 -22.06 37.1 -102.68 -16.74zm721.08 -175.04l-20.16 266.43 -100.3 -6.48 20.15 -266.43 -78.19 -5.06 17.07 -89.45 235.65 15.25 4 90.8 -78.22 -5.06zm289.5 119.69l-12.24 -216.07 99.86 -4.82 12.24 216.04c1.9,33.44 0.8,58.63 -3.39,75.53 -4.19,16.87 -11.91,31.61 -23.41,44 -9.92,10.74 -23.24,19.4 -39.76,25.88 -16.57,6.55 -34.76,10.28 -54.67,11.24 -19.8,0.96 -38.3,-0.98 -55.56,-5.91 -17.12,-4.83 -31.26,-12.16 -42.18,-21.88 -13.02,-11.41 -22.55,-25.46 -28.76,-42.09 -6.06,-16.65 -10.09,-41.41 -11.94,-74.19l-12.24 -216.04 100.42 -4.85 12.24 216.04c1.13,20.12 4.19,34.08 9.12,41.76 4.94,7.78 12.74,11.41 23.55,10.87 10.7,-0.5 18.11,-4.95 22.25,-13.24 4.14,-8.4 5.6,-22.5 4.47,-42.27zm177.8 136.91l-40.39 -355.45 43.57 -4.24 160.76 141.73 -17.67 -155.64 99.18 -9.65 40.42 355.48 -45.17 4.37 -158.75 -140.43 17.53 154.15 -99.48 9.68zm656.59 -96.62c-15.33,9.28 -33.36,17.46 -54.04,24.58 -20.62,7.06 -42.65,12.52 -65.98,16.33 -63.08,10.29 -115.83,2.38 -158.23,-23.8 -42.4,-26.14 -68.93,-66.76 -79.43,-121.9 -10.29,-53.99 0.19,-101.67 31.46,-143.06 31.18,-41.39 75.65,-66.77 133.44,-76.17 22,-3.6 43.84,-4.19 65.73,-1.74 21.76,2.38 42.3,7.47 61.76,15.38l-24.21 91.02c-17.39,-5.79 -33.05,-9.41 -47.12,-11.01 -14.08,-1.6 -27.59,-1.33 -40.64,0.8 -28.75,4.69 -50.7,17.14 -65.86,37.47 -15.14,20.31 -20.19,43.9 -15.09,70.65 4.75,24.79 17.13,43.66 37.23,56.48 20.01,12.87 43.61,17.08 70.58,12.68 6.73,-1.09 13.21,-2.66 19.22,-4.74 6.01,-2.08 11.82,-4.64 17.31,-7.65l-16.65 -87.31 98.48 -16.07 32.04 168.06zm366.12 -82.24c-14.39,10.47 -31.57,20.09 -51.5,28.81 -19.88,8.74 -41.3,15.94 -64.19,21.61 -61.87,15.33 -115.16,11.7 -159.88,-10.92 -44.7,-22.68 -74.94,-60.98 -90.6,-115.09 -15.36,-52.95 -9.41,-101.27 17.86,-145.03 27.16,-43.74 69.07,-72.6 125.73,-86.65 21.59,-5.35 43.28,-7.7 65.31,-7.03 21.92,0.61 42.88,4.05 62.98,10.37l-15.53 92.61c-17.86,-4.37 -33.83,-6.72 -47.97,-7.17 -14.2,-0.45 -27.63,0.88 -40.42,4.08 -28.18,6.98 -48.88,21.16 -62.06,42.61 -13.18,21.48 -15.97,45.39 -8.36,71.62 7.03,24.33 21.15,42.1 42.38,53.25 21.15,11.24 45.05,13.51 71.49,6.95 6.62,-1.62 12.93,-3.7 18.7,-6.26 5.79,-2.56 11.36,-5.57 16.51,-9.01l-24.78 -85.66 96.58 -23.93 47.75 164.84zm129.39 -165.08l75.14 -23.93 -80.18 -102 5.04 125.93zm-93.46 166.62l1.95 -378.61 106.84 -34.03 246.63 299.46 -100.36 31.98 -27.32 -33.72 -129.31 41.21 0.13 42.32 -98.56 31.39zm572.19 -306.7l16.46 101.49 -192.07 82.83 -163.33 -323.92 90.66 -39.1 118.36 234.75 129.92 -56.05zm305.16 -30.17l-89.11 42 -175.44 -318.46 89.11 -42 175.44 318.46zm66.11 -34.35l-199.03 -306.36 85.71 -47.63 88.51 136.19 -16.74 -176.06 98.93 -54.98 10.26 184.24 190.54 121.13 -95.06 52.82 -183.44 -120.22 106.04 163.21 -85.72 47.66zm318.23 -338.77l64.3 -43.2 -108.94 -75.85 44.64 119.05zm-36.72 184.61l-117.82 -362.62 91.43 -61.4 330.5 219.69 -85.86 57.7 -36.78 -24.84 -110.64 74.36 13.51 40.45 -84.34 56.66z"/>
   </g>
  </g>
 </g>
</svg>
