<?xml version="1.0" encoding="UTF-8"?>
<!DOCTYPE svg PUBLIC "-//W3C//DTD SVG 1.1//EN" "http://www.w3.org/Graphics/SVG/1.1/DTD/svg11.dtd">
<!-- Creator: CorelDRAW 2019 (64-Bit) -->
<svg xmlns="http://www.w3.org/2000/svg" xml:space="preserve" width="2160px" height="480px" version="1.1" style="shape-rendering:geometricPrecision; text-rendering:geometricPrecision; image-rendering:optimizeQuality; fill-rule:evenodd; clip-rule:evenodd"
viewBox="0 0 2160 480.04"
 xmlns:xlink="http://www.w3.org/1999/xlink"
 xmlns:xodm="http://www.corel.com/coreldraw/odm/2003">
 <defs>
  <style type="text/css">
   <![CDATA[
    .fil2 {fill:#0A7FA7}
    .fil1 {fill:#189CC2}
    .fil3 {fill:#1BA0E1}
    .fil0 {fill:#434343;fill-rule:nonzero}
   ]]>
  </style>
 </defs>
 <g id="Layer_x0020_1">
  <metadata id="CorelCorpID_0Corel-Layer"/>
  <g id="_2150079414544">
   <path class="fil0" d="M63.95 461.07c-18.73,-13.05 -33.77,-36.4 -33.77,-77.82l0 -109.73 -22.09 0 -8.09 0 0 -8.08 0 -25.93 0 -8.09 8.09 0 22.55 0 0 -56.96 0 -8.08 8.08 0 30.64 0 8.09 0 0 8.08 0 56.96 49.98 0 8.08 0 0 8.09 0 25.93 0 8.08 -8.08 0 -49.98 0 0 106.55c0,19.22 4.72,31.47 11.36,39.18 9.56,11.08 23.59,13.23 32.67,13.23 1.57,0 3.14,0 4.38,-0.08l0.03 0c1.4,-0.1 2.84,-0.27 4.37,-0.61l9.83 -2.17 0 10.03 0 27.75 0 6.84 -6.8 1.12c-1.76,0.3 -4.1,0.58 -6.87,0.77 -2.36,0.16 -4.95,0.27 -7.68,0.27 -14.37,0 -36.23,-2.39 -54.79,-15.33zm145.78 13.51l-31.09 0 -8.09 0 0 -8.09 0 -228.8 0 -8.09 8.09 0 30.63 0 8.09 0 0 8.09 0 25.08c4.54,-6.24 9.69,-11.88 15.38,-16.74 13.6,-11.6 30.25,-18.7 49.23,-18.7 2.32,0 4.85,0.14 7.4,0.42 2.38,0.27 4.74,0.66 6.88,1.2l6.16 1.53 0 6.3 0 30.48 0 11.18 -10.62 -3.51c-0.09,-0.03 -1.15,-0.13 -2.71,-0.25 -1.86,-0.15 -4.1,-0.25 -6.19,-0.25 -19.96,0 -34.82,10.02 -45.19,24.65l-0.01 -0.01c-13.71,19.37 -19.87,46.67 -19.87,70.53l0 96.89 0 8.09 -8.09 0zm125.88 -15.75c-14.66,-12.61 -24.23,-30.59 -24.23,-53.74 0,-41.91 26.42,-63.99 58.87,-75.57 30.69,-10.94 66.62,-12.13 89.13,-12.13l5.62 0c-0.27,-17.42 -4.68,-29.32 -11.97,-36.92 -8.49,-8.86 -21.44,-12.4 -36.63,-12.4 -10.67,0 -21.31,1.83 -31.41,5.21 -10.49,3.5 -20.42,8.63 -29.23,15.04l-7.13 5.19 -4.53 -7.56 -14.17 -23.65 -3.52 -5.88 5.22 -4.42c9.97,-8.43 23.68,-15.45 38.98,-20.32 15.01,-4.79 31.59,-7.54 47.62,-7.54 30,0 53.49,8.51 69.63,25 16.01,16.34 24.42,40.14 24.42,70.88l0 146.47 0 8.09 -8.09 0 -29.72 0 -8.09 0 0 -8.09 0 -17.76c-5.36,6.04 -11.57,11.48 -18.51,16.08 -14.2,9.39 -31.44,15.23 -50.67,15.23 -22.57,0 -45.24,-7.15 -61.59,-21.21zm58.72 -93.99c-19.52,5.75 -35.23,16.67 -35.23,37.52 0,9.22 4.06,18.68 12.1,25.48 7.2,6.08 17.68,10.1 31.48,10.1 17.91,0 32.45,-8.59 42.91,-21.3 12.59,-15.28 19.42,-36.4 19.42,-56.13l0 -2.38 -5.17 0c-17.38,0 -43.89,0.33 -65.51,6.71zm274.47 109.74l-33.84 0 -5.51 0 -2 -5.18 -88.71 -228.8 -4.26 -11 11.78 0 33.38 0 5.56 0 1.99 5.25 63.55 167.85 0.03 0.09c0.3,0.81 0.59,1.65 0.88,2.5 0.29,-0.85 0.58,-1.69 0.88,-2.5l0.03 -0.09 63.56 -167.85 1.98 -5.25 5.57 0 32.92 0 11.76 0 -4.21 10.97 -87.79 228.8 -2 5.21 -5.55 0zm142.67 -30.87c-22.75,-22.54 -36.45,-54.21 -36.45,-91.39 0,-38.46 12.93,-69.63 33.8,-91.64 22.38,-23.61 53.79,-36.54 88.14,-36.54 32.64,0 57.81,11.98 75.3,31.22 19.13,21.02 28.81,50.58 28.81,82.4 0,2.53 -0.13,5.34 -0.32,8.24 -0.14,2.21 -0.4,5.09 -0.66,7.96l-0.67 7.36 -7.35 0 -167.95 0c2.1,21.79 10.35,39.08 22.53,51.45 14.77,14.99 35.48,22.89 58.08,22.89 11.49,0 23.19,-2.37 34.17,-6.66 11.22,-4.37 21.67,-10.72 30.39,-18.55l7.28 -6.54 5.04 8.41 14.18 23.65 3.39 5.67 -4.88 4.44c-11.44,10.41 -26,18.89 -41.68,24.76 -15.78,5.91 -32.73,9.2 -48.8,9.2 -36.78,0 -69.2,-13.38 -92.35,-36.33zm37.35 -160.54c-10.09,9.05 -17.83,21.6 -21.96,37.41l125.87 0c-1.96,-16.43 -7.74,-29.05 -15.97,-37.99 -10.37,-11.25 -24.9,-16.8 -40.71,-16.8 -17.89,0 -34.5,5.97 -47.23,17.38zm217.53 182.5c-12.84,-9.1 -22.93,-25.15 -22.93,-53.31l0 -265.64 0 -8.09 8.09 0 31.09 0 8.09 0 0 8.09 0 258.82c0,12.5 2.53,19.28 6.11,22.76 3.1,3.02 7.63,3.72 11.86,3.72 1.07,0 2.4,0 2.97,-0.02 0.96,-0.05 2.01,-0.13 3.05,-0.31l9.39 -1.55 0 9.51 0 27.75 0 6.84 -6.8 1.12c-1.45,0.24 -3.2,0.49 -5.42,0.69 -2.31,0.21 -4.77,0.35 -7.3,0.35 -10.52,0 -25.48,-1.72 -38.2,-10.73zm111.3 -23.05c-23.09,-23.06 -37.29,-55.12 -37.29,-91.67 0,-35.9 14.22,-67.41 37.34,-90.06 23.41,-22.95 55.9,-36.75 91.91,-36.75 36.04,0 68.66,13.82 92.18,36.77 23.21,22.66 37.54,54.16 37.54,90.04 0,36.52 -14.3,68.56 -37.46,91.6 -23.54,23.42 -56.19,37.49 -92.26,37.49 -36.05,0 -68.55,-14.05 -91.96,-37.42zm34.27 -150.59c-14.47,14.76 -23.38,35.38 -23.38,58.92 0,24.38 8.86,45.41 23.26,60.4 14.66,15.25 35.11,24.31 57.81,24.31 22.75,0 43.34,-9.09 58.1,-24.38 14.48,-14.99 23.43,-36 23.43,-60.33 0,-23.5 -8.99,-44.1 -23.54,-58.86 -14.77,-14.99 -35.3,-24.02 -57.99,-24.02 -22.64,0 -43.04,9 -57.69,23.96zm268.48 182.55l-31.09 0 -8.09 0 0 -8.09 0 -319.77 0 -8.09 8.09 0 31.09 0 8.09 0 0 8.09 0 170.22 25.03 0 66.15 -84.24 2.43 -3.1 3.92 0 37.5 0 16.84 0 -10.56 13.15 -76.59 95.35 85.17 123.81 8.71 12.67 -15.35 0 -37.49 0 -4.29 0 -2.4 -3.6 -73.95 -110.57 -25.12 0 0 106.08 0 8.09 -8.09 0zm188.98 -15.75c-14.67,-12.61 -24.23,-30.59 -24.23,-53.74 0,-41.91 26.41,-63.99 58.86,-75.57 30.69,-10.94 66.63,-12.13 89.14,-12.13l5.62 0c-0.27,-17.42 -4.68,-29.32 -11.97,-36.92 -8.49,-8.86 -21.44,-12.4 -36.63,-12.4 -10.67,0 -21.31,1.83 -31.41,5.21 -10.49,3.5 -20.42,8.63 -29.23,15.04l-7.13 5.19 -4.53 -7.56 -14.18 -23.65 -3.52 -5.88 5.23 -4.42c9.97,-8.43 23.68,-15.45 38.98,-20.32 15.01,-4.79 31.59,-7.54 47.62,-7.54 30,0 53.48,8.51 69.63,25 16.01,16.34 24.42,40.14 24.42,70.88l0 146.47 0 8.09 -8.09 0 -29.72 0 -8.09 0 0 -8.09 0 -17.76c-5.36,6.04 -11.57,11.48 -18.52,16.08 -14.19,9.39 -31.43,15.23 -50.66,15.23 -22.57,0 -45.25,-7.15 -61.59,-21.21zm58.72 -93.99c-19.53,5.75 -35.23,16.67 -35.23,37.52 0,9.22 4.05,18.68 12.1,25.48 7.2,6.08 17.68,10.1 31.48,10.1 17.91,0 32.44,-8.59 42.91,-21.3 12.58,-15.28 19.42,-36.4 19.42,-56.13l0 -2.38 -5.17 0c-17.39,0 -43.89,0.33 -65.51,6.71z"/>
   <path class="fil1" d="M2025.09 253.51c0.27,-0.16 0.54,-0.31 0.82,-0.48 -12.34,-36.86 38.95,-99.13 134.09,-203.28 -76.92,9.43 -136.41,28.96 -178.49,58.57 4.1,60.36 18.62,108.76 43.58,145.19z"/>
   <path class="fil2" d="M2025.09 253.51c0.27,-0.16 0.54,-0.31 0.82,-0.48 -0.42,-1.25 -0.76,-2.53 -1.03,-3.83 -12.01,-45.64 -16.88,-98.37 -14.6,-158.18 -10.36,5.32 -19.95,11.08 -28.77,17.29 4.09,60.36 18.62,108.77 43.58,145.2z"/>
   <path class="fil3" d="M2056.75 306.35c20.32,10.39 37.16,15.77 52.07,13.19 -100.24,-39.29 -141.84,-145.81 -124.82,-319.54 -36.01,7.08 -65.24,23.55 -85.59,51 -17.73,23.91 -12.04,54.31 2.49,94.86 1.96,5.45 4.3,34.76 -7.84,45.65 -4.46,4 -11.63,0.84 -17.83,-3.21 -21.31,-12.1 -39.03,-11.99 -53.14,0.36 -38.9,-6.53 -67.07,-10.1 -84.52,-10.7 24.89,7.84 53.65,15.9 85.95,25.32 13.79,4.02 25.62,13.48 34.94,27.82 19.09,29.33 73.16,45.23 125.54,52.78 19.65,2.83 46.83,9.2 72.75,22.47z"/>
  </g>
 </g>
</svg>
